<?xml version="1.0" encoding="UTF-8"?>
<svg fill="none" viewBox="0 0 24 24" xmlns="http://www.w3.org/2000/svg">
 <mask id="a" x="0" y="0" width="24" height="24" style="mask-type:alpha" maskUnits="userSpaceOnUse">
  <rect y=".11429" width="23.771" height="23.771" fill="#D9D9D9"/>
 </mask>
 <g mask="url(#a)">
  <path d="m16.953 8.9142h1.7522v-1.7522h-1.7522v1.7522zm0.8761 13.486c-1.2368 0-2.2888-0.4337-3.1562-1.301-0.8673-0.8673-1.3009-1.9194-1.3009-3.1561 0-1.2368 0.4336-2.2889 1.3009-3.1562 0.8674-0.8673 1.9194-1.301 3.1562-1.301s2.2888 0.4337 3.1562 1.301c0.8673 0.8673 1.3009 1.9194 1.3009 3.1562 0 1.2367-0.4336 2.2888-1.3009 3.1561-0.8674 0.8673-1.9194 1.301-3.1562 1.301zm-0.438-1.5429h0.876v-2.4762h2.4762v-0.8761h-2.4762v-2.4762h-0.876v2.4762h-2.4762v0.8761h2.4762v2.4762zm4.8951-8.0189c-0.5994-0.5664-1.2854-0.9937-2.0582-1.2819-0.7725-0.2883-1.5722-0.4324-2.3989-0.4324-0.2641 0-0.5174 0.0152-0.7599 0.0456-0.2427 0.0305-0.4846 0.0814-0.7258 0.1525v-1.0553l-6.2477-4.497v-2.1887h12.19v9.2572zm-20.8 7.5808v-9.1619l6.4381-4.5903 6.4381 4.5903v0.8687c-1.0235 0.5802-1.838 1.398-2.4437 2.4531-0.6057 1.0554-0.9085 2.1767-0.9085 3.364 0 0.4419 0.0393 0.8637 0.1178 1.2655 0.0788 0.402 0.2051 0.8055 0.3791 1.2106h-1.6781v-5.4857h-3.8094v5.4857h-4.5334z" fill="#0A66C2"/>
 </g>
</svg>
