<?xml version="1.0" encoding="UTF-8"?>
<svg fill="none" viewBox="0 0 25 24" xmlns="http://www.w3.org/2000/svg">
 <mask id="a" x="0" y="0" width="25" height="24" style="mask-type:alpha" maskUnits="userSpaceOnUse">
  <rect x=".77148" y=".11429" width="23.771" height="23.771" fill="#D9D9D9"/>
 </mask>
 <g mask="url(#a)">
  <path d="m10.638 16.705h3.7524v-1.4858h-3.7524v1.4858zm0-3.9619h6.7238v-1.4858h-6.7238v1.4858zm-2.6857-3.962h9.4095v-1.4857h-9.4095v1.4857zm-0.32389 12.629c-1.2341 0-2.2855-0.4327-3.1542-1.298-0.86865-0.8655-1.303-1.9154-1.303-3.1497 0-0.9218 0.24828-1.7447 0.74484-2.4685 0.49655-0.7237 1.141-1.2564 1.9334-1.5982h-2.602v-1.4854h5.2191v5.2188h-1.4857v-2.5733c-0.67435 0.1448-1.2303 0.487-1.6677 1.0267-0.43746 0.5396-0.65619 1.1631-0.65619 1.8705 0 0.8292 0.29054 1.5317 0.87162 2.1077 0.58092 0.5758 1.2808 0.8637 2.0998 0.8637v1.4857zm3.0096-0.9905v-1.4857h8.6476c0.0763 0 0.1461-0.0317 0.2095-0.0953 0.0635-0.0634 0.0953-0.1332 0.0953-0.2095v-13.257c0-0.07627-0.0318-0.14609-0.0953-0.20949-0.0634-0.06355-0.1332-0.09533-0.2095-0.09533h-13.257c-0.07626 0-0.14609 0.03178-0.20948 0.09533-0.06356 0.0634-0.09534 0.13322-0.09534 0.20949v3.8666h-1.4857v-3.8666c0-0.50035 0.17333-0.92387 0.52-1.2705 0.34667-0.34667 0.77018-0.52 1.2705-0.52h13.257c0.5004 0 0.9239 0.17333 1.2705 0.52 0.3467 0.34666 0.52 0.77018 0.52 1.2705v13.257c0 0.5004-0.1733 0.9239-0.52 1.2705-0.3466 0.3467-0.7701 0.52-1.2705 0.52h-8.6476z" fill="#000" fill-opacity=".75"/>
 </g>
</svg>
