<?xml version="1.0" encoding="UTF-8"?>
<svg fill="none" viewBox="0 0 24 24" xmlns="http://www.w3.org/2000/svg">
 <mask id="a" x="0" y="0" width="24" height="24" style="mask-type:alpha" maskUnits="userSpaceOnUse">
  <rect x=".14307" y=".11429" width="23.771" height="23.771" fill="#D9D9D9"/>
 </mask>
 <g mask="url(#a)">
  <path d="m8.1809 11.886v-1.7521h1.7522v1.7521h-1.7522zm5.9429 0v-1.7521h1.7521v1.7521h-1.7521zm-10.514 9.5239v-7.2191h0.99047v-4.1713c0-1.026 0.19364-1.9902 0.58092-2.8925 0.38727-0.90216 0.91751-1.6901 1.5907-2.3638 0.67303-0.67386 1.4621-1.2043 2.3672-1.5914 0.90529-0.38728 1.8685-0.58092 2.8897-0.58092 1.026 0 1.9901 0.19364 2.8925 0.58092 0.9021 0.38728 1.69 0.91776 2.3637 1.5914 0.6737 0.67368 1.2042 1.4616 1.5915 2.3638 0.3873 0.90232 0.5809 1.8665 0.5809 2.8925v4.1713h0.9905v7.2191h-16.838zm1.4857-1.4857h2.2286v-4.2476h-2.2286v4.2476zm3.7143 0h2.4762v-4.2476h-2.4762v4.2476zm-2.7238-5.7334h5.2v-10.059c-1.4133 0.15484-2.6333 0.78115-3.6601 1.8789-1.0266 1.0978-1.5399 2.434-1.5399 4.0088v4.1713zm6.6857 0h5.2v-4.1713c0-1.5747-0.5133-2.911-1.54-4.0088-1.0268-1.0978-2.2468-1.7241-3.66-1.8789v10.059zm0 5.7334h2.4762v-4.2476h-2.4762v4.2476zm3.9619 0h2.2286v-4.2476h-2.2286v4.2476z" fill="#000"/>
 </g>
</svg>
