<?xml version="1.0" encoding="UTF-8"?>
<svg fill="none" viewBox="0 0 25 24" xmlns="http://www.w3.org/2000/svg">
 <mask id="a" x="0" y="0" width="25" height="24" style="mask-type:alpha" maskUnits="userSpaceOnUse">
  <rect x=".91455" y=".11429" width="23.771" height="23.771" fill="#D9D9D9"/>
 </mask>
 <g mask="url(#a)">
  <path d="m12.8 4.0762v-1.4857h9.4095v1.4857h-9.4095zm0 3.6571v-1.4857h9.4095v1.4857h-9.4095zm0 3.6571v-1.4857h9.4095v1.4857h-9.4095zm6.3789 10.019c-1.8666 0-3.7418-0.434-5.6257-1.302-1.8837-0.8679-3.6145-2.0923-5.1923-3.6731-1.5777-1.581-2.8005-3.3119-3.6685-5.1926-0.86799-1.8806-1.302-3.7542-1.302-5.6207 0-0.29994 0.09905-0.54988 0.29715-0.74979 0.19809-0.19991 0.44571-0.29986 0.74286-0.29986h3.2304c0.2501 0 0.47073 0.08163 0.66189 0.24489 0.19116 0.1631 0.31274 0.36466 0.36474 0.60469l0.56779 2.9142c0.03929 0.2704 0.03104 0.50275-0.02476 0.69704-0.05596 0.1943-0.15633 0.35748-0.3011 0.48955l-2.2875 2.2269c0.36813 0.6742 0.78875 1.3119 1.2619 1.9133 0.47295 0.6012 0.98503 1.1755 1.5362 1.7227 0.54344 0.5436 1.1212 1.0484 1.7333 1.5145 0.6122 0.466 1.2731 0.8996 1.983 1.3009l2.2226-2.2419c0.155-0.1613 0.3427-0.2744 0.5631-0.3392 0.2202-0.0648 0.4491-0.0806 0.6866-0.0476l2.7503 0.5601c0.2501 0.0661 0.4543 0.1937 0.6124 0.3829 0.1582 0.1891 0.2372 0.4037 0.2372 0.6438v3.2113c0 0.2972-0.0999 0.5448-0.2998 0.7429-0.2 0.1981-0.4499 0.2971-0.7498 0.2971zm-13.24-11.067 1.7678-1.6914c0.0317-0.02543 0.05233-0.06034 0.06191-0.10475 0.00957-0.0444 0.00801-0.08567-0.00471-0.12381l-0.43061-2.2135c-0.01271-0.05068-0.03491-0.08873-0.0666-0.11416-0.0317-0.02542-0.07297-0.03813-0.12382-0.03813h-2.1181c-0.03813 0-0.06991 0.01271-0.09533 0.03813-0.02526 0.02543-0.03789 0.0572-0.03789 0.09534 0.05068 0.67682 0.16145 1.3644 0.33231 2.0627 0.17069 0.69846 0.40906 1.395 0.71512 2.0896zm8.6172 8.56c0.6565 0.306 1.3412 0.54 2.0542 0.702 0.7132 0.1618 1.3795 0.2579 1.999 0.2885 0.0382 0 0.07-0.0128 0.0954-0.0382s0.0381-0.0572 0.0381-0.0953v-2.0837c0-0.0509-0.0127-0.0921-0.0381-0.1238s-0.0635-0.0539-0.1142-0.0666l-2.08-0.423c-0.0381-0.0127-0.0715-0.0143-0.1-0.0047-0.0286 0.0096-0.0588 0.0302-0.0906 0.0619l-1.7638 1.7829z" fill="#000" fill-opacity=".75"/>
 </g>
</svg>
