<?xml version="1.0" encoding="UTF-8"?>
<svg fill="none" viewBox="0 0 24 30" xmlns="http://www.w3.org/2000/svg">
 <g filter="url(#b)">
  <mask id="a" x="0" y="0" width="24" height="24" style="mask-type:alpha" maskUnits="userSpaceOnUse">
   <rect y=".11428" width="23.771" height="23.771" fill="#D9D9D9"/>
  </mask>
  <g mask="url(#a)">
   <path d="m8.1713 18.305h7.4286v-1.4857h-7.4286v1.4857zm0-2.7807h7.4286v-1.4857h-7.4286v1.4857zm3.7143-3.2362c1.0514-0.9525 1.9333-1.7617 2.6458-2.4276 0.7123-0.6661 1.0685-1.4105 1.0685-2.2333 0-0.5309-0.1892-0.98553-0.5676-1.3639-0.3785-0.37836-0.8331-0.56754-1.3638-0.56754-0.3975 0-0.7366 0.08601-1.0173 0.25802-0.2806 0.17201-0.5358 0.40089-0.7656 0.68665-0.2298-0.28576-0.485-0.51464-0.7656-0.68665-0.2807-0.17201-0.6197-0.25802-1.0173-0.25802-0.53068 0-0.98531 0.18918-1.3638 0.56754-0.37836 0.37836-0.56754 0.83299-0.56754 1.3639 0 0.82275 0.34378 1.5548 1.0313 2.1961 0.68772 0.64117 1.582 1.4628 2.683 2.4648zm5.638 9.1218h-11.276c-0.50036 0-0.92387-0.1733-1.2705-0.52-0.34667-0.3466-0.52-0.7702-0.52-1.2705v-15.238c0-0.50036 0.17333-0.92387 0.52-1.2705 0.34667-0.34667 0.77018-0.52 1.2705-0.52h11.276c0.5004 0 0.9239 0.17333 1.2706 0.52 0.3466 0.34666 0.52 0.77017 0.52 1.2705v15.238c0 0.5003-0.1734 0.9239-0.52 1.2705-0.3467 0.3467-0.7702 0.52-1.2706 0.52zm-11.276-1.4857h11.276c0.089 0 0.1621-0.0285 0.2192-0.0857 0.0571-0.0571 0.0857-0.1301 0.0857-0.2191v-15.238c0-0.08898-0.0286-0.16203-0.0857-0.21914-0.0571-0.05712-0.1302-0.08568-0.2192-0.08568h-11.276c-0.08898 0-0.16203 0.02856-0.21915 0.08568-0.05712 0.05711-0.08567 0.13016-0.08567 0.21914v15.238c0 0.089 0.02855 0.162 0.08567 0.2191 0.05712 0.0572 0.13017 0.0857 0.21915 0.0857z" fill="#000" fill-opacity=".75"/>
  </g>
 </g>
 <defs>
  <filter id="b" x=".45703" y="2.5905" width="22.857" height="26.819" color-interpolation-filters="sRGB" filterUnits="userSpaceOnUse">
   <feFlood flood-opacity="0" result="BackgroundImageFix"/>
   <feColorMatrix in="SourceAlpha" result="hardAlpha" values="0 0 0 0 0 0 0 0 0 0 0 0 0 0 0 0 0 0 127 0"/>
   <feOffset dy="4"/>
   <feGaussianBlur stdDeviation="2"/>
   <feComposite in2="hardAlpha" operator="out"/>
   <feColorMatrix values="0 0 0 0 0 0 0 0 0 0 0 0 0 0 0 0 0 0 0.25 0"/>
   <feBlend in2="BackgroundImageFix" result="effect1_dropShadow_22_94"/>
   <feBlend in="SourceGraphic" in2="effect1_dropShadow_22_94" result="shape"/>
  </filter>
 </defs>
</svg>
