<?xml version="1.0" encoding="UTF-8"?>
<svg fill="none" viewBox="0 0 36 36" xmlns="http://www.w3.org/2000/svg">
 <mask id="a" x="0" y="0" width="36" height="36" style="mask-type:alpha" maskUnits="userSpaceOnUse">
  <rect width="36" height="36" fill="#D9D9D9"/>
 </mask>
 <g mask="url(#a)">
  <path d="m6.7385 30.75c-0.794 0-1.3584-0.3674-1.6931-1.1021-0.3345-0.7345-0.22587-1.4057 0.32588-2.0134l9.2134-10.601v-10.081h-2.1229c-0.2412 0-0.4434-0.08238-0.6064-0.24713-0.163-0.1645-0.2445-0.36825-0.2445-0.61125 0-0.24325 0.0815-0.44462 0.2445-0.60412 0.163-0.15975 0.3652-0.23963 0.6064-0.23963h11.077c0.2412 0 0.4433 0.08225 0.6063 0.24675s0.2445 0.36838 0.2445 0.61163-0.0815 0.44462-0.2445 0.60412c-0.163 0.15975-0.3651 0.23963-0.6063 0.23963h-2.1229v10.081l9.2134 10.601c0.5517 0.6077 0.6603 1.2789 0.3258 2.0134-0.3347 0.7347-0.8991 1.1021-1.6931 1.1021h-22.523zm2.7262-2.928h17.071l-5.7548-6.6922h-5.5612l-5.7548 6.6922zm-3.0608 1.2259h23.192l-9.8827-11.391v-10.705h-3.4268v10.705l-9.8827 11.391z" fill="#fff"/>
 </g>
</svg>
