<?xml version="1.0" encoding="UTF-8"?>
<svg fill="none" viewBox="0 0 22 22" xmlns="http://www.w3.org/2000/svg">
 <mask id="a" x="0" y="0" width="22" height="22" style="mask-type:alpha" maskUnits="userSpaceOnUse">
  <rect width="22" height="22" fill="#D9D9D9"/>
 </mask>
 <g mask="url(#a)">
  <path d="m6.5224 15.689c-0.22978 0-0.42243-0.0777-0.57796-0.2331-0.15537-0.1554-0.23306-0.3479-0.23306-0.5777v-1.375h11.344l0.2909 0.2908v-8.294h1.375c0.2297 0 0.4223 0.07769 0.5777 0.23306 0.1555 0.15553 0.2333 0.34811 0.2333 0.57773v12.622l-3.2436-3.2436h-9.766zm-4.0546-0.7755v-11.811c0-0.22978 0.07777-0.42243 0.2333-0.57796 0.15537-0.15538 0.34795-0.23306 0.57772-0.23306h11.423c0.2298 0 0.4224 0.07768 0.5778 0.23306 0.1553 0.15553 0.233 0.34818 0.233 0.57796v7.7564c0 0.2296-0.0777 0.4222-0.233 0.5777-0.1554 0.1554-0.348 0.233-0.5778 0.233h-8.9904l-3.2436 3.2437zm11.67-4.6187v-6.6281h-10.295v7.2629l0.63479-0.6348h9.66z" fill="#fff"/>
 </g>
</svg>
