<?xml version="1.0" encoding="UTF-8"?>
<svg fill="none" viewBox="0 0 25 24" xmlns="http://www.w3.org/2000/svg">
 <mask id="a" x="0" y="0" width="25" height="24" style="mask-type:alpha" maskUnits="userSpaceOnUse">
  <rect x=".54297" y=".11429" width="23.771" height="23.771" fill="#D9D9D9"/>
 </mask>
 <g mask="url(#a)">
  <path d="m2.3237 19.238v-2.2021c0-0.5104 0.13173-0.966 0.3952-1.3666 0.26347-0.4007 0.61533-0.7123 1.0556-0.935 0.94128-0.4604 1.8878-0.8154 2.8394-1.065 0.95185-0.2495 1.9979-0.3742 3.1381-0.3742 1.1403 0 2.1864 0.1247 3.138 0.3742 0.9519 0.2496 1.8984 0.6046 2.8397 1.065 0.4403 0.2227 0.7922 0.5343 1.0556 0.935 0.2635 0.4006 0.3952 0.8562 0.3952 1.3666v2.2021h-14.857zm16.838 0v-2.3239c0-0.6501-0.1592-1.2698-0.4774-1.8589-0.3185-0.589-0.7701-1.0944-1.355-1.5162 0.6641 0.0991 1.2946 0.2523 1.8916 0.4598 0.5967 0.2077 1.1663 0.4531 1.7085 0.7362 0.5118 0.2731 0.907 0.5949 1.1856 0.9655 0.2787 0.3704 0.418 0.7749 0.418 1.2136v2.3239h-3.3713zm-9.4095-7.543c-0.95334 0-1.7694-0.3394-2.4482-1.0182-0.67881-0.67899-1.0182-1.4951-1.0182-2.4485 0-0.95333 0.3394-1.7694 1.0182-2.4482 0.6788-0.67897 1.4949-1.0184 2.4482-1.0184s1.7694 0.33948 2.4484 1.0184c0.6788 0.67881 1.0182 1.4949 1.0182 2.4482 0 0.95334-0.3394 1.7695-1.0182 2.4485-0.679 0.6788-1.4951 1.0182-2.4484 1.0182zm8.5522-3.4667c0 0.95334-0.3394 1.7695-1.0182 2.4485-0.6788 0.6788-1.4949 1.0182-2.4482 1.0182-0.1118 0-0.254-0.0127-0.4266-0.0381-0.1729-0.0255-0.3151-0.0534-0.4267-0.0837 0.3906-0.4697 0.6908-0.9907 0.9006-1.563 0.2097-0.57234 0.3145-1.1666 0.3145-1.7829 0-0.6164-0.107-1.2085-0.3209-1.7762-0.214-0.56754-0.512-1.09-0.8942-1.5674 0.1421-0.05084 0.2844-0.08386 0.4267-0.09905 0.1421-0.01535 0.2843-0.02302 0.4266-0.02302 0.9533 0 1.7694 0.33948 2.4482 1.0184 0.6788 0.67881 1.0182 1.4949 1.0182 2.4482zm-14.495 9.5239h11.886v-0.7163c0-0.2069-0.0517-0.3909-0.1552-0.5522-0.1034-0.1613-0.2675-0.3023-0.4923-0.4229-0.8152-0.4203-1.6545-0.7388-2.518-0.9554-0.8636-0.2164-1.7893-0.3246-2.7773-0.3246-0.98784 0-1.9135 0.1082-2.777 0.3246-0.86353 0.2166-1.7029 0.5351-2.518 0.9554-0.22484 0.1206-0.38901 0.2616-0.49251 0.4229-0.10351 0.1613-0.15526 0.3453-0.15526 0.5522v0.7163zm5.9429-7.5429c0.54474 0 1.0111-0.194 1.399-0.58193 0.3879-0.38794 0.5819-0.85429 0.5819-1.399s-0.194-1.0111-0.5819-1.399c-0.3879-0.38794-0.8543-0.58191-1.399-0.58191-0.54476 0-1.0111 0.19397-1.399 0.58191-0.38794 0.38793-0.58191 0.85428-0.58191 1.399s0.19397 1.0111 0.58191 1.399c0.38794 0.38793 0.85429 0.58193 1.399 0.58193z" fill="#1C1B1F" fill-opacity=".5"/>
 </g>
</svg>
