<?xml version="1.0" encoding="UTF-8"?>
<svg fill="none" viewBox="0 0 22 22" xmlns="http://www.w3.org/2000/svg">
 <mask id="a" x="0" y="0" width="22" height="22" style="mask-type:alpha" maskUnits="userSpaceOnUse">
  <rect width="22" height="22" fill="#D9D9D9"/>
 </mask>
 <g mask="url(#a)">
  <path d="m15.336 18.792c-0.2245 0-0.4158-0.0791-0.5739-0.2372-0.1579-0.158-0.2369-0.3493-0.2369-0.5738v-6.9701c0-0.2245 0.079-0.4158 0.2369-0.5739 0.1581-0.158 0.3494-0.2369 0.5739-0.2369h3.5607c0.2246 0 0.4159 0.0789 0.5739 0.2369 0.1581 0.1581 0.2372 0.3494 0.2372 0.5739v6.9701c0 0.2245-0.0791 0.4158-0.2372 0.5738-0.158 0.1581-0.3493 0.2372-0.5739 0.2372h-3.5607zm0-1.7277h3.5607v-5.1368h-3.5607v5.1368zm-7.9326 1.7277v-1.375h1.9919v-2.2917h-5.4471c-0.45711 0-0.84761-0.1619-1.1715-0.4856-0.32374-0.3239-0.48561-0.7144-0.48561-1.1715v-8.6024c0-0.45711 0.16187-0.84761 0.48561-1.1715 0.32389-0.32374 0.71439-0.48561 1.1715-0.48561h12.269c0.4571 0 0.8476 0.16187 1.1715 0.48561 0.3238 0.32389 0.4856 0.71439 0.4856 1.1715v3.501h-1.375v-3.501c0-0.08235-0.0264-0.14995-0.0793-0.20281-0.0528-0.05287-0.1204-0.0793-0.2028-0.0793h-12.269c-0.08235 0-0.14995 0.02643-0.20281 0.0793-0.05287 0.05286-0.0793 0.12046-0.0793 0.20281v8.6024c0 0.0824 0.02643 0.15 0.0793 0.2028 0.05286 0.0529 0.12046 0.0793 0.20281 0.0793h8.7436v1.375h-1.9215v2.2917h1.9919v1.375h-5.3588zm0.76496-6.4696 1.9145-1.4983 1.9144 1.4983-0.7088-2.401 1.9234-1.5547h-2.3746l-0.7544-2.3022-0.75445 2.3022h-2.3746l1.9234 1.5547-0.70881 2.401z" fill="#fff"/>
 </g>
</svg>
