<?xml version="1.0" encoding="UTF-8"?>
<svg fill="none" viewBox="0 0 24 24" xmlns="http://www.w3.org/2000/svg">
 <mask id="a" x="0" y="0" width="24" height="24" style="mask-type:alpha" maskUnits="userSpaceOnUse">
  <rect width="24" height="24" fill="#D9D9D9"/>
 </mask>
 <g mask="url(#a)">
  <path d="m12 12c-1.1 0-2.0417-0.3917-2.825-1.175s-1.175-1.725-1.175-2.825 0.39167-2.0417 1.175-2.825 1.725-1.175 2.825-1.175 2.0417 0.39167 2.825 1.175 1.175 1.725 1.175 2.825-0.3917 2.0417-1.175 2.825-1.725 1.175-2.825 1.175zm-8 8v-2.8c0-0.5667 0.14583-1.0875 0.4375-1.5625s0.67917-0.8375 1.1625-1.0875c1.0333-0.5167 2.0833-0.9042 3.15-1.1625s2.15-0.3875 3.25-0.3875 2.1833 0.1292 3.25 0.3875 2.1167 0.6458 3.15 1.1625c0.4833 0.25 0.8708 0.6125 1.1625 1.0875s0.4375 0.9958 0.4375 1.5625v2.8h-16zm2-2h12v-0.8c0-0.1833-0.0458-0.35-0.1375-0.5s-0.2125-0.2667-0.3625-0.35c-0.9-0.45-1.8083-0.7875-2.725-1.0125s-1.8417-0.3375-2.775-0.3375-1.8583 0.1125-2.775 0.3375c-0.91667 0.225-1.825 0.5625-2.725 1.0125-0.15 0.0833-0.27083 0.2-0.3625 0.35s-0.1375 0.3167-0.1375 0.5v0.8zm6-8c0.55 0 1.0208-0.19583 1.4125-0.5875s0.5875-0.8625 0.5875-1.4125-0.1958-1.0208-0.5875-1.4125-0.8625-0.5875-1.4125-0.5875-1.0208 0.19583-1.4125 0.5875-0.5875 0.8625-0.5875 1.4125 0.1958 1.0208 0.5875 1.4125 0.8625 0.5875 1.4125 0.5875z" fill="#fff"/>
 </g>
</svg>
