<?xml version="1.0" encoding="UTF-8"?>
<svg fill="none" viewBox="0 0 25 24" xmlns="http://www.w3.org/2000/svg">
 <mask id="a" x="0" y="0" width="25" height="24" style="mask-type:alpha" maskUnits="userSpaceOnUse">
  <rect x=".68604" y=".11429" width="23.771" height="23.771" fill="#D9D9D9"/>
 </mask>
 <g mask="url(#a)">
  <path d="m7.1243 21.41v-3.9923c-0.94095-0.8584-1.6714-1.8422-2.1914-2.9514-0.52-1.1093-0.78-2.2637-0.78-3.4632 0-2.3367 0.81855-4.3228 2.4556-5.9585 1.6369-1.6358 3.6247-2.4537 5.9634-2.4537 1.9238 0 3.6441 0.57498 5.1609 1.7249 1.5169 1.1498 2.502 2.6415 2.9553 4.4752l1.1571 4.5706c0.0743 0.2824 0.0219 0.5389-0.1572 0.7693-0.179 0.2305-0.4177 0.3457-0.7161 0.3457h-1.9619v3.1618c0 0.4925-0.1753 0.914-0.526 1.2646-0.3506 0.3507-0.7721 0.526-1.2646 0.526h-2.1713v1.9809h-1.4857v-3.4666h3.657c0.089 0 0.1621-0.0286 0.2192-0.0857s0.0857-0.1302 0.0857-0.2192v-4.6475h2.6743l-0.941-3.8381c-0.3797-1.5085-1.1917-2.7316-2.4361-3.6695-1.2445-0.93781-2.6611-1.4067-4.2496-1.4067-1.9149 0-3.5492 0.66948-4.9029 2.0084s-2.0305 2.9672-2.0305 4.8848c0 0.989 0.20222 1.9285 0.60666 2.8184 0.40445 0.89 0.9781 1.681 1.721 2.3732l0.64381 0.5933v4.6552h-1.4857zm5.352-5.5429c0.2428 0 0.4465-0.0821 0.6109-0.2462 0.1644-0.1642 0.2466-0.3678 0.2466-0.6106 0-0.2426-0.0821-0.4462-0.2464-0.6106-0.1642-0.1646-0.3677-0.2469-0.6104-0.2469-0.2428 0-0.4464 0.0821-0.6108 0.2464-0.1645 0.1642-0.2467 0.3678-0.2467 0.6106 0 0.2427 0.0822 0.4462 0.2464 0.6107 0.1641 0.1644 0.3676 0.2466 0.6104 0.2466zm-0.5807-2.9407h1.1963c0-0.3556 0.0584-0.6646 0.1753-0.9269 0.1167-0.2621 0.3401-0.5717 0.6703-0.9286 0.2909-0.3237 0.5703-0.6516 0.8382-0.9837 0.2679-0.33202 0.4019-0.74818 0.4019-1.2485 0-0.65602-0.2492-1.2105-0.7476-1.6635-0.4984-0.45298-1.1248-0.67947-1.8792-0.67947-0.603 0-1.1521 0.16764-1.6474 0.50291-0.4952 0.33528-0.8534 0.77654-1.0744 1.3238l1.0762 0.46478c0.1409-0.35047 0.3622-0.63234 0.6638-0.84562 0.3016-0.21345 0.6289-0.32017 0.9818-0.32017 0.4013 0 0.7375 0.11324 1.0086 0.33973 0.2712 0.22649 0.4068 0.51901 0.4068 0.87756 0 0.35938-0.1079 0.67369-0.3239 0.94293-0.2159 0.26911-0.4609 0.54391-0.7351 0.82461-0.3302 0.3404-0.5813 0.6839-0.7533 1.0306-0.1722 0.3466-0.2583 0.7765-0.2583 1.2896z" fill="#000" fill-opacity=".75"/>
 </g>
</svg>
