<?xml version="1.0" encoding="UTF-8"?>
<svg fill="none" viewBox="0 0 24 24" xmlns="http://www.w3.org/2000/svg">
 <mask id="a" x="0" y="0" width="24" height="24" style="mask-type:alpha" maskUnits="userSpaceOnUse">
  <rect y=".11429" width="23.771" height="23.771" fill="#D9D9D9"/>
 </mask>
 <g mask="url(#a)">
  <path d="m6.2001 19.021 2.2038-0.8971c-0.1905-0.5613-0.35913-1.1325-0.50589-1.7136-0.14659-0.5809-0.25801-1.1666-0.33428-1.7571l-1.2304 0.8306c-0.04441 0.0316-0.07775 0.0681-0.10004 0.1094-0.02212 0.0413-0.03318 0.0873-0.03318 0.1382v3.2896zm3.7046-1.0781h3.9619c0.2971-0.7302 0.5365-1.5699 0.7181-2.5191s0.2724-1.9286 0.2724-2.9382c0-1.5643-0.2502-3.0262-0.7506-4.3856-0.5001-1.3594-1.2404-2.5305-2.2208-3.5132-0.9805 0.98272-1.7208 2.1538-2.2209 3.5132-0.50036 1.3594-0.75054 2.8213-0.75054 4.3856 0 1.0096 0.0908 1.989 0.27238 2.9382 0.18159 0.9492 0.42096 1.7889 0.7181 2.5191zm1.981-5.2c-0.4813 0-0.8905-0.1686-1.2277-0.5057-0.3371-0.3372-0.5057-0.7465-0.5057-1.2277s0.1686-0.8904 0.5057-1.2277c0.3372-0.33709 0.7464-0.50564 1.2277-0.50564 0.4812 0 0.8904 0.16855 1.2276 0.50564 0.3371 0.33727 0.5057 0.74647 0.5057 1.2277s-0.1686 0.8905-0.5057 1.2277c-0.3372 0.3371-0.7464 0.5057-1.2276 0.5057zm5.6855 6.2781v-3.28c0-0.0508-0.011-0.0984-0.0331-0.1428-0.0223-0.0446-0.0557-0.0828-0.1001-0.1144l-1.2304-0.8306c-0.0763 0.5905-0.1956 1.2096-0.3581 1.8572-0.1626 0.6476-0.3233 1.1886-0.4821 1.6229l2.2038 0.8877zm-5.6855-16.351c1.5009 1.2013 2.6189 2.6404 3.3542 4.3172 0.7353 1.6767 1.1029 3.5887 1.1029 5.7361 0 0.0381 0.0016 0.0778 0.0047 0.1191s0.0016 0.0841-0.0047 0.1285l1.899 1.2723c0.2552 0.1626 0.4549 0.3782 0.599 0.6468 0.1441 0.2685 0.2161 0.5521 0.2161 0.8505v5.4684l-4.4323-1.7808h-5.4875l-4.4227 1.7808v-5.478c0-0.2985 0.07048-0.5819 0.21146-0.8504 0.14081-0.2685 0.33891-0.4841 0.59429-0.6467l1.9084-1.2723v-0.2382c0-2.1474 0.36763-4.0594 1.1029-5.7361 0.73527-1.6769 1.8533-3.116 3.3543-4.3172z" fill="#000"/>
 </g>
</svg>
