<?xml version="1.0" encoding="UTF-8"?>
<svg fill="none" viewBox="0 0 24 24" xmlns="http://www.w3.org/2000/svg">
 <mask id="a" x="0" y="0" width="24" height="24" style="mask-type:alpha" maskUnits="userSpaceOnUse">
  <rect y=".11428" width="23.771" height="23.771" fill="#D9D9D9"/>
 </mask>
 <g mask="url(#a)">
  <path d="m4.9524 20.419c-0.63176 0-1.0808-0.2818-1.347-0.8456-0.26644-0.5639-0.20214-1.0883 0.19289-1.5733l5.6113-6.8192v-6.1142h-1.1809c-0.21047 0-0.38694-0.07124-0.52941-0.2137-0.1423-0.14246-0.21344-0.31893-0.21344-0.52941 0-0.21064 0.07114-0.38703 0.21344-0.52916 0.14247-0.1423 0.31894-0.21345 0.52941-0.21345h7.3142c0.2105 0 0.3869 0.07123 0.5294 0.2137 0.1423 0.14246 0.2134 0.31893 0.2134 0.52941 0 0.21064-0.0711 0.38703-0.2134 0.52916-0.1425 0.1423-0.3189 0.21345-0.5294 0.21345h-1.1809v6.1142l5.6113 6.8192c0.395 0.485 0.4593 1.0094 0.1929 1.5733-0.2663 0.5638-0.7153 0.8456-1.3471 0.8456h-13.867zm0-1.4857h13.867l-5.9428-7.2304v-6.6362h-1.981v6.6362l-5.9428 7.2304z" fill="#000" fill-opacity=".75"/>
 </g>
</svg>
