<?xml version="1.0" encoding="UTF-8"?>
<svg fill="none" viewBox="0 0 24 24" xmlns="http://www.w3.org/2000/svg">
 <mask id="a" x="0" y="0" width="24" height="24" style="mask-type:alpha" maskUnits="userSpaceOnUse">
  <rect width="24" height="24" fill="#D9D9D9"/>
 </mask>
 <g mask="url(#a)">
  <path d="m9.5 16.5 7-4.5-7-4.5v9zm-4.5 4.5c-0.55 0-1.0208-0.1958-1.4125-0.5875s-0.5875-0.8625-0.5875-1.4125v-14c0-0.55 0.19583-1.0208 0.5875-1.4125s0.8625-0.5875 1.4125-0.5875h14c0.55 0 1.0208 0.19583 1.4125 0.5875s0.5875 0.8625 0.5875 1.4125v14c0 0.55-0.1958 1.0208-0.5875 1.4125s-0.8625 0.5875-1.4125 0.5875h-14zm0-2h14v-14h-14v14z" fill="#fff"/>
 </g>
</svg>
