<?xml version="1.0" encoding="UTF-8"?>
<svg fill="none" viewBox="0 0 36 36" xmlns="http://www.w3.org/2000/svg">
 <mask id="a" x="0" y="0" width="36" height="36" style="mask-type:alpha" maskUnits="userSpaceOnUse">
  <rect width="36" height="36" fill="#D9D9D9"/>
 </mask>
 <g mask="url(#a)">
  <path d="m17.641 32.477c-1.8885-0.0808-3.664-0.5072-5.3265-1.2792-1.6625-0.7722-3.1072-1.7958-4.3339-3.0708-1.227-1.275-2.1972-2.7587-2.9108-4.4509-0.7135-1.6923-1.0702-3.5009-1.0702-5.4259 0-1.9692 0.3745-3.8206 1.1235-5.5541 0.749-1.7338 1.7649-3.242 3.0476-4.5248 1.2828-1.2828 2.791-2.2986 4.5248-3.0476 1.7335-0.749 3.5849-1.1235 5.5541-1.1235 3.6288 0 6.7676 1.1702 9.4166 3.5108 2.6493 2.3402 4.2143 5.2614 4.695 8.7634h-1.725c-0.329-2.1962-1.1708-4.165-2.5256-5.9062-1.3547-1.7415-3.0782-3.0343-5.1705-3.8783v0.68925c0 0.8655-0.2976 1.6136-0.8929 2.2444-0.5952 0.63075-1.3255 0.94615-2.1907 0.94615h-3.1905v3.1901c0 0.4145-0.1615 0.7643-0.4845 1.0493-0.3233 0.2852-0.6974 0.4278-1.1224 0.4278h-3.0836v3.2134h3.7069v4.6297h-2.1233l-7.5345-7.5202c-0.10575 0.4807-0.186 0.9623-0.24075 1.4445-0.05475 0.482-0.08212 0.964-0.08212 1.446 0 3.3463 1.1422 6.2323 3.4268 8.658 2.2845 2.426 5.122 3.715 8.5125 3.867v1.7018zm14.368-0.7441-5.1547-5.1262c-0.4865 0.3655-1.0168 0.6435-1.5908 0.834-0.574 0.1903-1.1566 0.2854-1.7479 0.2854-1.5925 0-2.9476-0.5578-4.0653-1.6733-1.1178-1.1152-1.6767-2.4676-1.6767-4.0571 0-1.5893 0.5578-2.9401 1.6733-4.0526 1.1152-1.1125 2.4676-1.6688 4.0571-1.6688 1.5893 0 2.9401 0.5589 4.0526 1.6767 1.1125 1.1177 1.6688 2.4728 1.6688 4.0653 0 0.6008-0.1014 1.1907-0.3041 1.7697-0.203 0.5787-0.4843 1.1191-0.8438 1.6211l5.1547 5.1026-1.2232 1.2232zm-8.5147-5.7086c1.1247 0 2.0775-0.3886 2.8582-1.1659 0.7808-0.7772 1.1711-1.7282 1.1711-2.8529 0-1.1248-0.3886-2.0775-1.1659-2.8583-0.7772-0.7807-1.7282-1.1711-2.8529-1.1711-1.1248 0-2.0775 0.3886-2.8583 1.1659-0.7807 0.7772-1.1711 1.7282-1.1711 2.853 0 1.1247 0.3886 2.0774 1.1659 2.8582 0.7772 0.7807 1.7282 1.1711 2.853 1.1711z" fill="#fff"/>
 </g>
</svg>
