<?xml version="1.0" encoding="UTF-8"?>
<svg fill="none" viewBox="0 0 800 648" xmlns="http://www.w3.org/2000/svg">
 <path d="m581.38 641.3h20.389c5.061 0 8.554-4.989 6.844-9.767l-26.948-73.426c73.569-52.965 121.54-139.37 121.54-236.96 0-161.18-130.67-291.85-291.85-291.85-161.11 0-291.78 130.67-291.78 291.85 0 97.593 47.977 184 121.62 236.96l-26.947 73.426c-1.711 4.706 1.782 9.767 6.773 9.767h360.36z" fill="#0A66C2" fill-opacity=".5" stroke="#fff" stroke-linecap="round" stroke-linejoin="round" stroke-miterlimit="10" stroke-width="4.3478"/>
 <path d="m423.12 164.32c2.067 9.339 6.346 21.671 13.759 31.723 13.189 17.822 38.708 21.529 56.461 8.198 0.069-0.071 0.141-0.143 0.213-0.214 1.069-0.784 2.067-1.64 3.065-2.495 0.356 0.143 0.641 0.285 0.998 0.499-2.068 7.984-0.642 5.561-2.281 10.693-24.524 14.828-48.191 2.994-58.385-10.194-12.332-15.968-13.83-38.21-13.83-38.21z" fill="#000" stroke="#000" stroke-linecap="round" stroke-linejoin="round" stroke-miterlimit="10" stroke-width="2.6087"/>
 <path d="m537.61 106.15c-0.641 9.125-2.068 18.249-4.278 27.161-0.285 1.211-0.642 2.495-0.927 3.707-4.063 15.041-10.193 29.441-18.321 42.63-4.633 7.556-9.909 14.685-16.324 20.602-0.428 0.428-0.926 0.855-1.355 1.212-0.997 0.855-2.067 1.711-3.065 2.495-0.071 0.071-0.143 0.142-0.215 0.214-7.272 5.417-15.826 8.055-24.309 7.984 0.285-0.214 0.57-0.499 0.857-0.713 3.991-1.497 7.769-3.707 11.263-6.701 0.072-0.071 0.141-0.143 0.213-0.214 1.069-0.927 2.067-1.853 3.065-2.851 0.428-0.428 0.928-0.927 1.355-1.426 6.417-6.63 11.763-14.757 16.326-23.24 8.126-14.828 14.256-31.082 18.319-47.977 0.357-1.425 0.644-2.78 0.928-4.206 2.137-9.98 3.635-20.246 4.276-30.511 0.429-6.4159 0.357-14.257-0.782-20.46-0.072-0.2139-0.072-0.4276-0.144-0.6415 1.07 0.2852 2.14 0.6415 3.137 1.1407 4.918 2.495 7.985 7.9128 9.124 13.473 1.213 5.7031 1.283 12.618 0.857 18.321z" fill="#fff"/>
 <path d="m497.69 209.09c193.55 100.23 171.87 320.65 112.35 333.63-5.417 0.998-10.55 0.928-15.398 0-0.428-0.072-0.785-0.141-1.141-0.213-28.944-6.346-47.904-42.202-53.252-53.252-5.633 41.061-8.198 104.01-11.05 151.98h-276.88c1.853-23.096 4.633-50.614 7.27-73.142 0 0 1-1.995 1.285-2.209 7.698-6.273 107.93-89.823 174.01-205.38 19.961-34.93 41.276-70.646 49.971-109.07 0.144-0.428 0.216-0.928 0.287-1.356 4.99-14.47 9.196-28.513 12.118-41.132 0.215 0 0.285 0.071 0.428 0.142z" fill="#fff"/>
 <path d="m222.38 319.37c-30.012-9.909-60.666-20.674-73.426-27.446-16.468-8.698-32.508-19.604-42.417-35.359-9.9088-15.756-12.404-37.356-1.996-52.754 7.913-11.691 21.814-18.107 35.787-20.103 13.972-1.996 28.087-0.071 42.06 1.854 25.592 3.493 51.184 6.986 76.777 10.55 79.985-5.845 116.91-8.697 133.88-10.051v0.142c-4.419 94.812 53.822 157.83 53.822 157.62l-6.987 13.902c-66.082 117.41-172.59 206.95-180.29 213.36-0.285 0.213-0.426 0.356-0.426 0.356 14.115-122.9 36.285-228.98 36.285-228.98s-36-10.835-73.07-23.095z" fill="#fff"/>
 <path d="m401.38 535.16c-19.819 14.4-43.558 23.811-69.293 26.235 21.6-5.277 41.632-15.185 59.313-28.659 3.422 0.5 6.772 1.213 9.98 2.424z" fill="#0A66C2" fill-opacity=".5"/>
 <path d="m533.41 44.483c17.893 25.592 17.252 64.016-0.57 92.603l-0.428-0.143c0.356-1.212 0.641-2.495 0.926-3.707 2.139-8.911 3.637-17.964 4.278-27.16 0.426-5.704 0.357-12.618-0.785-18.179-1.21-5.5604-4.206-10.978-9.123-13.473-4.707-2.4237-10.268-1.8535-15.4-0.6416-5.133 1.212-10.266 2.9229-15.47 2.6377-12.046-0.5703-21.67-11.335-33.504-13.26-11.833-1.8535-23.524 5.5604-30.511 15.612-6.987 10.052-10.052 23.454-13.118 35.358-1.426-2.352-2.852-4.705-4.848-6.558-1.995-1.854-4.704-3.137-7.413-2.923-1.995 0.214-3.85 1.212-5.347 2.709-2.566-16.254-0.855-33.22 4.847-48.618 5.918-16.04 16.255-30.369 29.513-40.848-0.641 4.9188 3.709 10.123 8.27 11.691 4.635 1.5682 10.196-0.6416 12.548-4.9902 1.711-3.1366 1.782-6.9862 0.926-10.408-0.854-3.4931-2.496-6.701-4.135-9.8377 30.511 0.42772 61.45 14.543 79.344 40.135z" fill="#000"/>
 <path d="m325.17 391.15-1.639 8.057c-17.252-10.265-28.159-29.657-26.661-51.041 0.072-1.426 0.285-2.853 0.429-4.279v-0.071c0.213 20.032 11.263 37.854 27.871 47.334z" fill="#0A66C2" fill-opacity=".5"/>
 <path d="m359.89 406.34c24.952-3.706 44.913-24.38 46.693-50.541 0.072-1.426 0.144-2.852 0.144-4.278l-27.089 7.628s-25.307 33.006-24.596 34.289c0.713 1.141 4.848 12.902 4.848 12.902z" fill="#0A66C2" fill-opacity=".5"/>
 <path d="m355.04 351.59c-9.48 0-17.393-6.558-19.461-15.398 2.068-8.841 9.981-15.4 19.461-15.4 9.483 0 17.396 6.559 19.463 15.4-2.067 8.84-9.98 15.398-19.463 15.398zm2.283 67.368 2.565-12.62 1.711-8.411 0.143-0.356c24.381-4.207 43.701-24.596 45.481-50.4 2.139-30.298-20.744-56.605-51.041-58.672-30.298-2.065-56.603 20.746-58.67 51.043-0.072 1.427-0.143 2.922-0.143 4.348 0.143 20.033 11.193 37.855 27.802 47.335l-1.639 8.057-22.455 111.56 37.711 0.356 0.641-3.28 4.277-21.172 2.282-11.119 1.639-7.985 6.487-32.294 1.711-8.626" fill="#fff"/>
 <path d="m357.33 418.96 2.565-12.62 1.711-8.411 0.143-0.356c24.381-4.207 43.701-24.596 45.481-50.4 2.139-30.298-20.744-56.605-51.041-58.672-30.298-2.065-56.603 20.746-58.67 51.043-0.072 1.427-0.143 2.922-0.143 4.348 0.143 20.033 11.193 37.855 27.802 47.335l-1.639 8.057-22.455 111.56 37.711 0.356 0.641-3.28 4.277-21.172 2.282-11.119 1.639-7.985 6.487-32.294 1.711-8.626m-0.785-75.137c-9.48 0-17.393-6.558-19.461-15.398 2.068-8.841 9.981-15.4 19.461-15.4 9.483 0 17.396 6.559 19.463 15.4-2.067 8.84-9.98 15.398-19.463 15.398z" stroke="#0A66C2" stroke-linecap="round" stroke-linejoin="round" stroke-miterlimit="10" stroke-opacity=".5" stroke-width="2.6087"/>
 <path d="m375.08 331.56c0 1.569-0.213 3.137-0.57 4.634-2.067-8.841-9.98-15.4-19.463-15.4-9.48 0-17.393 6.559-19.461 15.4-0.356-1.497-0.569-2.995-0.569-4.634 0-11.05 8.982-19.961 20.03-19.961 11.05 0 20.033 8.911 20.033 19.961z" fill="#0A66C2" fill-opacity=".5"/>
 <path d="m295.52 342.39s-12.974 62.163-25.45 146.43c-2.853 19.46-5.703 40.134-8.342 61.45-0.428-0.213-0.854-0.498-1.282-0.713-1.213-0.713-2.496-1.211-3.85-1.783-0.429-0.141-0.855-0.357-1.283-0.498 2.352-18.463 4.848-36.287 7.341-53.252 12.405-84.263 25.381-146.43 25.381-146.43s-35.002-10.478-71.503-22.526c1.853-1.996 3.779-3.85 5.775-5.774 0.071 0 0.071 0 0.143 0.072 36.998 12.26 73.07 23.024 73.07 23.024z" fill="#fff"/>
 <path d="m540.96 279.24c6.261 0 11.335-5.076 11.335-11.335 0-6.261-5.074-11.335-11.335-11.335s-11.335 5.074-11.335 11.335c0 6.259 5.074 11.335 11.335 11.335z" stroke="#0A66C2" stroke-linecap="round" stroke-linejoin="round" stroke-miterlimit="10" stroke-opacity=".5" stroke-width="2.6087"/>
 <path d="m554.36 212.29c10.078 0 18.25-8.17 18.25-18.249s-8.172-18.25-18.25-18.25c-10.079 0-18.25 8.171-18.25 18.25s8.171 18.249 18.25 18.249z" stroke="#000" stroke-linecap="round" stroke-linejoin="round" stroke-miterlimit="10" stroke-width="2.6087"/>
 <path d="m565.34 233.75c2.991 0 5.417-2.426 5.417-5.417 0-2.994-2.426-5.418-5.417-5.418-2.992 0-5.418 2.424-5.418 5.418 0 2.991 2.426 5.417 5.418 5.417z" stroke="#fff" stroke-linecap="round" stroke-linejoin="round" stroke-miterlimit="10" stroke-width="2.6087"/>
 <path d="m306.35 73.283c4.92-3.7069 11.122-5.9169 17.753-5.9169 16.323 0 29.513 13.188 29.513 29.513 0 16.324-13.19 29.513-29.513 29.513-16.327 0-29.516-13.189-29.516-29.513 0-6.2022 1.926-11.905 5.135-16.61" stroke="#fff" stroke-linecap="round" stroke-linejoin="round" stroke-miterlimit="10" stroke-width="2.6087"/>
 <path d="m350.84 151.49c4.568 0 8.27-3.702 8.27-8.269s-3.702-8.27-8.27-8.27c-4.567 0-8.269 3.703-8.269 8.27s3.702 8.269 8.269 8.269z" stroke="#fff" stroke-linecap="round" stroke-linejoin="round" stroke-miterlimit="10" stroke-width="2.6087"/>
 <path d="m496.69 201.53c0.429-0.428 0.926-0.784 1.355-1.212 6.415-5.917 11.763-13.117 16.324-20.602 8.769-14.258 15.256-30.012 19.319-46.337 2.139-8.911 3.637-17.965 4.278-27.161 0.427-5.703 0.357-12.618-0.784-18.178-1.211-5.5606-4.207-10.978-9.124-13.473-4.707-2.4237-10.268-1.8535-15.4-0.6416-5.133 1.2118-10.265 2.9229-15.47 2.6376-12.045-0.5704-21.669-11.335-33.504-13.26-11.835-1.8535-23.524 5.5604-30.511 15.612-6.987 10.052-10.052 23.454-13.117 35.359" stroke="#000" stroke-linecap="round" stroke-linejoin="round" stroke-miterlimit="10" stroke-width="2.6087"/>
 <path d="m423.12 164.32c2.067 9.339 6.346 21.671 13.759 31.723 13.189 17.822 38.708 21.529 56.461 8.198 0.069-0.071 0.141-0.143 0.213-0.214 1.069-0.784 2.067-1.64 3.065-2.495" stroke="#000" stroke-linecap="round" stroke-linejoin="round" stroke-miterlimit="10" stroke-width="2.6087"/>
 <path d="m402.31 107.5c-2.567-16.254-0.856-33.221 4.848-48.619 5.915-16.04 16.252-30.369 29.513-40.848-0.641 4.9188 3.707 10.123 8.27 11.691 4.561 1.5683 10.193-0.6417 12.545-4.9902 1.711-3.1366 1.783-6.9862 0.927-10.408-0.855-3.4931-2.494-6.701-4.135-9.8377 30.726 0.35646 61.665 14.471 79.487 40.064 17.821 25.592 17.252 64.017-0.57 92.603" stroke="#000" stroke-linecap="round" stroke-linejoin="round" stroke-miterlimit="10" stroke-width="2.6087"/>
 <path d="m419.92 114.27c-1.426-2.352-2.852-4.705-4.847-6.558-1.998-1.854-4.707-3.137-7.416-2.923-2.495 0.214-4.704 1.782-6.202 3.778-1.495 1.996-2.352 4.42-2.922 6.844-1.71 7.271-0.997 15.184 2.068 22.028 1.426 3.279 3.422 6.344 6.343 8.412 2.924 2.067 6.774 2.923 10.124 1.568" stroke="#000" stroke-linecap="round" stroke-linejoin="round" stroke-miterlimit="10" stroke-width="2.6087"/>
 <path d="m486.5 134.95s8.696 6.986 6.487 13.046c-2.211 6.131-15.113 2.281-15.113 2.281" stroke="#000" stroke-linecap="round" stroke-linejoin="round" stroke-miterlimit="10" stroke-width="2.6087"/>
 <path d="m460.48 151.27c3.28 8.982 11.406 16.04 20.745 18.036" stroke="#000" stroke-linecap="round" stroke-linejoin="round" stroke-miterlimit="10" stroke-width="2.6087"/>
 <path d="m497.69 208.66c193.97 100.52 175.16 315.31 112.71 334.91-38.283 7.128-63.517-40.635-69.791-53.681" stroke="#0A66C2" stroke-linecap="round" stroke-linejoin="round" stroke-miterlimit="10" stroke-opacity=".5" stroke-width="2.6087"/>
 <path d="m221.81 319.15c-29.727-9.765-59.881-20.458-72.499-27.089-16.468-8.698-32.507-19.604-42.416-35.358-9.9093-15.755-12.404-37.355-1.996-52.753 7.913-11.692 21.814-18.107 35.786-20.104 13.972-1.996 28.087-0.071 42.06 1.854 25.592 3.493 51.184 6.986 76.778 10.551 79.413-5.775 116.34-8.626 133.45-9.981" stroke="#0A66C2" stroke-linecap="round" stroke-linejoin="round" stroke-miterlimit="10" stroke-opacity=".5" stroke-width="2.6087"/>
 <path d="m416.92 147.35c-1.496 6.63-5.702 26.662-14.685 35.002" stroke="#000" stroke-linecap="round" stroke-linejoin="round" stroke-miterlimit="10" stroke-width="2.6087"/>
 <path d="m498.12 200.32c-0.144 0.57-0.285 1.141-0.429 1.711" stroke="#000" stroke-linecap="round" stroke-linejoin="round" stroke-miterlimit="10" stroke-width="2.6087"/>
 <path d="m393.4 186.13c-4.419 94.812 50.9 156.19 50.9 155.91" stroke="#000" stroke-linecap="round" stroke-linejoin="round" stroke-miterlimit="10" stroke-width="2.6087"/>
 <path d="m484.86 245.16c-8.696 39.065-27.587 78.915-40.563 96.95 0 0-55.674-61.094-51.326-155.91h0.641c3.28 0 6.13-1.426 8.626-3.778l0.213 0.57c0.356 20.816 7.487 41.49 20.176 58.029 4.561 5.987 9.909 11.548 16.396 15.326 6.487 3.85 14.256 5.846 21.671 4.563 9.624-1.711 17.466-8.554 24.166-15.754z" fill="#000" stroke="#000" stroke-linecap="round" stroke-linejoin="round" stroke-miterlimit="10" stroke-width="2.6087"/>
 <path d="m402.31 182.35-0.143-0.285" stroke="#000" stroke-linecap="round" stroke-linejoin="round" stroke-miterlimit="10" stroke-width="2.6087"/>
 <path d="m485.43 244.59c-0.216 0.215-0.357 0.357-0.5 0.572" stroke="#000" stroke-linecap="round" stroke-linejoin="round" stroke-miterlimit="10" stroke-width="2.6087"/>
 <path d="m500.47 198.25c-1.995 6.701-10.337 37.569-13.045 45.125" stroke="#000" stroke-linecap="round" stroke-linejoin="round" stroke-miterlimit="10" stroke-width="2.6087"/>
 <path d="m237.63 341.61c22.957-24.096 50.759-41.774 82.696-51.826-35.574 1.924-70.291 16.824-96.026 41.276 4.635 2.993 8.698 7.626 13.33 10.55z" fill="#0A66C2" fill-opacity=".5"/>
 <path d="m680.62 433.07c2.639 1.427 4.635 3.281 5.917 5.633 8.413 15.898-20.53 47.835-64.728 71.287-44.2 23.526-86.83 29.657-95.313 13.759-1.069-2.068-1.567-4.348-1.426-6.915l0.072-0.998c1.711-17.109 28.372-43.342 66.085-63.374 37.426-19.889 73.782-27.374 89.18-19.533l0.213 0.141z" fill="#0A66C2" fill-opacity=".5"/>
 <path d="m606.4 390.51 73.998 42.417c-15.326-7.841-51.685-0.428-89.18 19.533-37.783 20.033-64.374 46.265-66.085 63.374l7.2-108.43 1.711-25.592c-1.426-2.708 3.065-7.984 10.265-12.119 0.072 0.143 0.143 0.285 0.215 0.356 1.283 2.424 4.348 3.635 7.27 3.635 2.21 0 4.278-0.641 6.345-1.354-0.926 1.354-1.711 2.852-2.424 4.35-0.998 2.067-1.782 4.491-0.998 6.628 0.998 2.639 4.207 3.994 6.987 3.709 2.779-0.287 5.418-1.711 7.913-3.137 4.133-2.424 8.268-4.848 12.474-7.2l4.42 2.565c-5.63 4.207-10.835 9.267-13.687 15.826-0.713 1.639-1.283 3.35-1.211 5.133 0.072 1.782 0.926 3.565 2.424 4.419 1.354 0.713 3.065 0.5 4.561 0.144 4.42-1.283 17.537-17.75 27.802-14.259z" fill="#0A66C2" fill-opacity=".5"/>
 <path d="m605.34 380.39c1 2.853 1.07 7.129 1.07 10.194-10.337-3.563-23.383 12.904-27.872 14.043-1.498 0.357-3.137 0.642-4.563-0.141-1.498-0.785-2.352-2.639-2.424-4.42-0.072-1.782 0.498-3.493 1.211-5.132 2.852-6.559 8.057-11.622 13.687-15.826 0.856-0.644 1.641-1.213 2.496-1.783 1.497-0.998 3.137-2.067 4.847-2.709 1.855-0.713 3.85-1.069 5.774-0.428 2.781 0.785 4.776 3.35 5.774 6.202z" fill="#0A66C2" fill-opacity=".5"/>
 <path d="m582.02 376.61c-4.132 2.424-8.339 4.848-12.473 7.2-2.496 1.426-5.061 2.922-7.914 3.137-2.852 0.213-6.06-1.07-6.986-3.707-0.785-2.139 0-4.563 0.997-6.63 0.713-1.498 1.57-2.924 2.424-4.348 5.133-7.772 13.046-13.545 21.459-17.68 2.209-1.07 4.419-1.996 6.843-2.424 2.353-0.428 4.918-0.213 7.057 0.926 3.565 1.926 5.276 6.346 4.991 10.337-0.285 4.063-2.282 7.772-4.635 11.05v0.072c-1.71 0.641-3.35 1.71-4.847 2.708-0.855 0.57-1.711 1.213-2.494 1.783l-4.422-2.424z" fill="#0A66C2" fill-opacity=".5"/>
 <path d="m584.66 344.53c1.924 2.067 2.78 5.063 1.852 7.7-2.424 0.428-4.633 1.354-6.844 2.423-8.41 4.063-16.324 9.909-21.456 17.679-2.068 0.713-4.135 1.354-6.346 1.354-2.921 0-5.987-1.211-7.271-3.635-0.07-0.143-0.142-0.284-0.214-0.356-0.997-2.352-0.284-5.133 0.785-7.485 2.209-4.991 5.631-9.411 9.909-12.974 3.635-3.065 7.841-5.42 12.476-6.915 1.852-0.641 3.778-1.07 5.774-1.283 1.069-0.143 2.209-0.143 3.278-0.072 2.924 0.214 5.989 1.355 8.057 3.564z" fill="#0A66C2" fill-opacity=".5"/>
 <path d="m551.23 341.97c-5.133-0.5-10.122-2.139-14.544-4.919-1.423-0.926-2.778-1.924-3.778-3.278-0.998-1.355-1.567-3.066-1.282-4.707 0.284-1.496 1.213-2.78 2.352-3.706 1.141-0.927 2.567-1.568 3.993-2.068 0.998-0.356 1.924-0.641 2.922-0.854 5.204-1.213 10.765-1.07 15.826 0.713 5.989 2.067 11.263 6.415 14.259 12.045 0.854 1.642 1.567 3.353 1.995 5.135l0.142 0.783c-1.924 0.215-3.848 0.641-5.774 1.285-4.563 1.495-8.839 3.848-12.474 6.913l-3.637-7.342z" fill="#0A66C2" fill-opacity=".5"/>
 <path d="m555.01 349.17c-4.276 3.564-7.698 7.985-9.909 12.974-1.069 2.353-1.783 5.133-0.785 7.485-1.211 0.713-2.28 1.426-3.35 2.139-1.924 1.426-3.565 2.852-4.776 4.207-1.995 2.28-2.852 4.348-2.139 5.774l-19.389-37.07-12.62-24.096-0.641-1.21c-0.713-1.498 0.215-3.637 2.352-5.99 1.213-1.354 2.852-2.78 4.776-4.134 1.498-1.07 3.209-2.068 4.992-2.994 8.197-4.278 16.182-5.417 17.75-2.424 0.215 0.357 0.428 0.855 0.641 1.211l0.072 0.144 0.071 0.141 0.213 0.428 8.627 16.539c-0.998 0.213-1.996 0.5-2.922 0.857-1.426 0.498-2.852 1.139-3.994 2.067-1.211 0.926-2.137 2.281-2.352 3.707-0.285 1.639 0.285 3.35 1.283 4.704 1 1.354 2.354 2.424 3.778 3.281 4.35 2.778 9.411 4.489 14.544 4.917l3.778 7.343z" fill="#0A66C2" fill-opacity=".5"/>
 <path d="m540.96 371.76c-1.924 1.426-3.566 2.853-4.777 4.207l-32.437-62.52c1.214-1.354 2.853-2.78 4.777-4.134l32.437 62.447z" fill="#fff"/>
 <path d="m562.63 470.71c12.598 0 22.811-10.213 22.811-22.813 0-12.598-10.213-22.811-22.811-22.811-12.6 0-22.813 10.213-22.813 22.811 0 12.6 10.213 22.813 22.813 22.813z" stroke="#000" stroke-linecap="round" stroke-linejoin="round" stroke-miterlimit="10" stroke-width="2.6087"/>
 <path d="m581.38 434.93 35.074-24.309-7.341-10.48" stroke="#000" stroke-linecap="round" stroke-linejoin="round" stroke-miterlimit="10" stroke-width="2.6087"/>
 <path d="m607.26 416.96-5.633-8.054" stroke="#000" stroke-linecap="round" stroke-linejoin="round" stroke-miterlimit="10" stroke-width="2.6087"/>
 <path d="m536.19 375.97-2.353 121.4 17.394-20.033-10.265-105.58-4.776 4.207z" fill="#fff"/>
 <path d="m531.98 305.11c-0.213-0.428-0.497-0.854-0.641-1.211-1.567-2.996-9.48-1.854-17.75 2.424-8.198 4.276-13.617 10.194-12.12 13.115l0.642 1.213-10.409-3.565-0.285-0.072c-1.211-0.426-2.139-1.067-2.637-1.995-2.352-4.561 5.918-13.616 18.607-20.246 12.689-6.628 24.878-8.339 27.23-3.778 0.429 0.785 0.5 1.639 0.287 2.639l-0.143 0.498-2.565 11.691-0.216-0.428-0.071-0.142 0.071-0.143z" fill="#0A66C2" fill-opacity=".5"/>
 <path d="m523.78 288.57c-0.285 4.991-0.569 9.908-0.854 14.9 2.352-0.357 5.061-0.928 7.413-0.428 0.498-4.564 1.498-9.196 1.995-13.759-2.852-1.07-5.56-1.568-8.554-0.713z" fill="#fff"/>
 <path d="m514.66 344.68 19.39 37.07-1.711 25.591c-5.205-2.637-9.339-7.413-11.192-12.974-2.21-6.772-1.213-14.4-4.491-20.674-3.422-6.559-10.622-9.98-15.969-15.113-1.924-1.852-3.707-4.063-4.492-6.628-0.713-2.568-0.285-5.633 1.711-7.487 2.354-2.209 5.989-2.068 9.126-1.568 2.637 0.5 5.133 1.07 7.628 1.783z" fill="#0A66C2" fill-opacity=".5"/>
 <path d="m507.39 247.65c-5.061-0.926-10.978 8.27-13.261 20.603-2.28 12.332 0 23.097 5.063 24.023 5.061 0.929 10.979-8.269 13.259-20.602 2.281-12.332 0-23.095-5.061-24.024zm0.213 23.098c-1.497 8.198-4.632 14.4-7.056 13.972-2.352-0.426-3.065-7.413-1.57-15.611 1.498-8.198 4.635-14.4 7.059-13.974 2.352 0.5 3.065 7.487 1.567 15.613z" fill="#fff"/>
 <path d="m441.8 233.68-2.495-0.57c-0.285-0.072-0.57-0.072-0.855 0-0.071 0-0.143 0-0.287 0.07-0.213 0.071-0.426 0.143-0.641 0.215-0.141 0.072-0.213 0.072-0.285 0.141-0.854 0.428-1.711 1.213-2.495 2.283-0.07 0.141-0.213 0.284-0.285 0.428-0.072 0.141-0.213 0.285-0.285 0.426-0.213 0.285-0.428 0.641-0.57 0.928-0.356 0.642-0.784 1.424-1.069 2.209-0.072 0.215-0.215 0.428-0.285 0.57-0.072 0.215-0.215 0.5-0.287 0.713-0.069 0.143-0.141 0.356-0.213 0.5-0.641 1.71-1.211 3.634-1.639 5.632l-2.994-0.643c0.07-0.357 0.142-0.713 0.214-1.139 0.071-0.285 0.071-0.572 0.141-0.785 0.072-0.357 0.143-0.785 0.215-1.141 0.072-0.498 0.141-1.07 0.213-1.568 0.072-0.5 0.144-1.069 0.144-1.569 0.071-0.57 0.071-1.068 0.141-1.64v-0.141c0-0.5 0.072-0.998 0.072-1.498 0.143-3.278 0.071-6.63-0.285-10.052-1.426-13.9-7.057-25.592-15.041-33.077v-0.427c-0.144-1.854-0.785-3.636-1.711-5.205 0 0 0-0.071-0.072-0.071 15.541 3.636 28.087 19.747 30.298 41.561 0.141 1.354 0.285 2.639 0.356 3.85z" fill="#fff"/>
 <path d="m434.89 265.83c-5.917 11.265-15.326 19.392-26.519 21.957-4.348 1-9.052 1.641-13.118 0.785l-11.691-1.783c3.565 0.5 7.2 0.356 10.909-0.498 0.356-0.072 0.782-0.215 1.139-0.285 0.215-0.071 0.356-0.071 0.572-0.143 0.997-0.285 1.924-0.641 2.921-0.998 0.357-0.143 0.785-0.285 1.142-0.5 0.428-0.213 0.854-0.426 1.354-0.641 0.213-0.142 0.498-0.213 0.713-0.357 0.141-0.069 0.213-0.141 0.357-0.213 0.213-0.072 0.428-0.213 0.641-0.356 0.285-0.144 0.569-0.285 0.785-0.5 0.284-0.142 0.569-0.285 0.782-0.498 0.572-0.357 1.07-0.713 1.57-1.07 0.428-0.285 0.854-0.641 1.282-0.926 1.142-0.856 2.281-1.854 3.35-2.852 0.285-0.285 0.572-0.5 0.857-0.785 0.854-0.854 1.711-1.782 2.565-2.78 0.285-0.357 0.572-0.713 0.857-1.068 0.356-0.428 0.713-0.928 1.069-1.356 0.357-0.426 0.642-0.854 0.998-1.354 0-0.07 0.072-0.07 0.141-0.142 0.287-0.428 0.572-0.856 0.857-1.282 0.213-0.287 0.428-0.644 0.641-1 0.072-0.142 0.144-0.213 0.213-0.357 0.072-0.141 0.216-0.285 0.287-0.426 0.213-0.428 0.426-0.785 0.711-1.213 0.215-0.357 0.428-0.783 0.644-1.139 0.356-0.644 0.713-1.355 0.997-1.998 0.285-0.498 0.498-1.067 0.783-1.639 0.215-0.428 0.357-0.785 0.572-1.211 0.072-0.215 0.141-0.428 0.285-0.641 0.143-0.357 0.284-0.644 0.428-1l0.141-0.426c0.072-0.216 0.215-0.5 0.285-0.713 0.072-0.144 0.143-0.285 0.143-0.429 0.144-0.284 0.213-0.569 0.285-0.854 0.072-0.144 0.072-0.287 0.144-0.428 0.141-0.357 0.213-0.713 0.356-1.07 0.285-0.926 0.57-1.854 0.783-2.852 0.072-0.357 0.215-0.713 0.287-1.07 0.069-0.426 0.213-0.782 0.285-1.21 0.071-0.357 0.141-0.642 0.213-0.998 0.071-0.357 0.143-0.785 0.215-1.142l2.993 0.642c-0.071 0.284-0.143 0.571-0.143 0.856-0.428 2.494-0.642 4.848-0.642 6.985 0 0.572 0 1.141 0.072 1.641v0.285c0 0.285 0.072 0.641 0.072 0.926s0.07 0.641 0.07 0.857c0 0.213 0.071 0.356 0.071 0.569 0.072 0.498 0.215 0.998 0.285 1.498 0.072 0.213 0.072 0.357 0.144 0.498 0.143 0.5 0.284 0.926 0.5 1.283 0.069 0.143 0.141 0.356 0.213 0.5 0.071 0.213 0.213 0.356 0.284 0.497 0.072 0.144 0.216 0.287 0.285 0.429 0 0.071 0.072 0.071 0.144 0.143 0.071 0.141 0.213 0.213 0.284 0.285 0.144 0.143 0.213 0.213 0.357 0.356 0.285 0.213 0.5 0.357 0.785 0.429l1.995 0.782z" fill="#fff"/>
 <path d="m412.93 194.12c7.985 7.485 13.615 19.105 15.041 33.077 0.713 6.703 0.357 13.259-0.854 19.533-3.85 19.82-16.398 36-32.65 39.709-3.709 0.854-7.415 0.998-10.909 0.498h-0.213c-15.326-2.281-28.159-16.611-31.865-36.713-0.357-1.711-0.572-3.494-0.785-5.277-0.356-3.634-0.428-7.269-0.213-10.834l0.072-0.072c0.285 0.356 0.569 0.713 0.854 0.926 1.924 1.357 4.491 1.426 6.702 0.785 2.209-0.642 4.205-1.996 6.059-3.422 0.356-0.285 0.713-0.57 1.07-0.854-0.5 3.278-0.572 6.7-0.216 10.193 1.711 17.037 13.474 28.587 26.52 26.305 0.356-0.07 0.713-0.142 0.998-0.214 13.474-3.065 22.884-19.747 21.03-37.213-1.069-10.693-6.13-19.247-12.974-23.524-4.35-2.709-9.411-3.778-14.543-2.566-0.998 0.214-1.924 0.499-2.852 0.855 1.854-5.632 2.639-11.833 0.287-17.251-0.287-0.642-0.644-1.284-0.998-1.925-0.572-0.927-1.285-1.854-2.068-2.638l0.285-0.285c7.057-4.063 16.183-4.348 23.452-0.713 2.781 1.355 5.348 3.351 6.987 5.917 0 0 0 0.071 0.072 0.071 0.998 1.569 1.567 3.351 1.711 5.204v0.428z" fill="#0A66C2" fill-opacity=".5"/>
 <path d="m403.88 198.61c0.856-0.285 1.497-1.07 1.854-1.996 0.285-0.856 0.356-1.854 0.285-2.709-0.285-4.705-2.353-9.268-5.703-12.547 5.133 0.428 9.909 3.992 11.62 8.84 0.57 1.639 0.854 3.493 0.285 5.204-0.5 1.354-1.498 2.566-2.852 3.136-1.283 0.642-2.85 0.713-4.276 0.214" fill="#fff"/>
 <path d="m400.67 206.88c-0.357 0.072-0.713 0.143-1 0.214-13.403 3.066-22.883 19.747-21.029 37.284 1.07 10.693 6.131 19.248 12.974 23.524-13.045 2.282-24.809-9.268-26.519-26.305-0.357-3.493-0.285-6.915 0.215-10.193 7.911-6.417 14.043-15.114 17.535-24.737 0.143-0.5 0.356-0.998 0.5-1.426 0.926-0.357 1.854-0.642 2.852-0.856 5.061-1.283 10.122-0.214 14.472 2.495z" fill="#0A66C2" fill-opacity=".5"/>
 <path d="m383.2 205.17c-0.142 0.498-0.357 0.998-0.498 1.425-3.494 9.624-9.624 18.25-17.537 24.737-0.357 0.285-0.713 0.57-1.07 0.855-1.854 1.426-3.778 2.78-6.058 3.421-0.285 0.072-0.572 0.144-0.857 0.216-1.996 0.428-4.135 0.141-5.774-0.998-0.356-0.215-0.641-0.572-0.854-0.928-1.285-1.781-1.641-4.99-0.928-6.772 0.428-0.57 0.856-1.141 1.282-1.711 7.557-10.693 11.763-23.739 11.835-36.855 0-2.923-0.213-5.989-1.141-8.769l1.213-0.143c3.778-1.639 8.198-1.639 11.976-0.142 1.211 0.499 2.28 1.069 3.35 1.853 0.785 0.571 1.569 1.212 2.282 1.996 0.783 0.785 1.424 1.711 2.068 2.638 0.354 0.642 0.711 1.212 0.998 1.925 2.352 5.418 1.567 11.62-0.287 17.252z" fill="#0A66C2" fill-opacity=".5"/>
 <path d="m350.7 244.87c0.213 1.782 0.429 3.565 0.785 5.276l-2.639 0.5c-14.47 1.069-29.085 0.213-43.341-2.568-41.489 27.874-105.44 35.787-152.84 21.103-10.194-3.137-20.246-7.416-28.23-14.687-7.913-7.27-13.473-18.035-12.475-29.013 1.212-13.973 12.689-25.094 25.378-29.87 12.689-4.848 26.59-4.634 40.135-4.563 34.931 0.214 72.142 11.407 103.72-3.992 5.915-2.851 11.048-7.057 16.824-10.194 5.774-3.136 12.474-5.132 18.748-3.279 4.135 1.212 7.556 4.135 9.98 7.77l1.639-0.356c2.496-1.569 4.992-3.208 7.485-4.776 0.928-0.571 1.926-1.212 2.852-1.783 1.996-1.212 4.063-2.281 6.346-2.851 4.917-1.283 10.622-0.143 13.9 3.778 1.141 1.283 1.924 2.78 2.424 4.42 0.926 2.709 1.141 5.846 1.141 8.768-0.072 13.117-4.278 26.163-11.835 36.856v0.072c-0.428 0.569-0.854 1.141-1.282 1.71-0.785 1.783-0.357 4.99 0.926 6.772l-0.072 0.072c-0.069 3.565 0 7.128 0.428 10.835z" fill="#0A66C2" fill-opacity=".5"/>
 <path d="m350.91 225.41c2.78-10.408 3.922-21.173 3.493-31.937-0.213-4.206-0.641-8.483-2.85-12.048-2.282-3.778-6.417-6.416-10.837-6.843-0.641-0.072-1.282-0.072-1.852-0.072 1.996-1.211 4.063-2.281 6.344-2.851 4.919-1.283 10.622-0.143 13.902 3.778 1.139 1.283 1.924 2.78 2.424 4.42 0.926 2.709 1.139 5.846 1.139 8.769 0 13.045-4.207 26.091-11.763 36.784z" fill="#fff"/>
 <path d="m383.2 205.16c-0.141 0.499-0.356 0.998-0.498 1.426-3.493 9.624-9.624 18.25-17.537 24.737-0.356 0.285-0.713 0.57-1.069 0.855-1.855 1.426-3.778 2.78-6.059 3.421-0.285 0.072-0.572 0.144-0.856 0.216 7.2-5.418 12.476-13.331 15.684-21.886 3.848-10.337 4.918-21.529 5.274-32.579 0.785 0.57 1.57 1.212 2.283 1.996 0.782 0.784 1.424 1.711 2.067 2.638 0.355 0.641 0.711 1.212 0.998 1.924 2.352 5.419 1.567 11.62-0.287 17.252z" fill="#fff"/>
 <path d="m593.79 374.55c2.353-3.281 4.35-6.987 4.635-11.05s-1.426-8.411-4.991-10.337c-2.139-1.142-4.704-1.355-7.057-0.926-2.352 0.428-4.634 1.354-6.843 2.423-9.909 4.848-19.176 12.048-23.883 22.029-0.997 2.067-1.782 4.491-0.997 6.628 0.997 2.709 4.206 3.993 6.986 3.709 2.853-0.287 5.418-1.711 7.842-3.137 4.704-2.709 9.411-5.42 14.115-8.198" stroke="#000" stroke-linecap="round" stroke-linejoin="round" stroke-miterlimit="10" stroke-width="2.6087"/>
 <path d="m535.04 293.56-0.142 0.498-2.567 11.691s-0.713-1.282-1.07-1.924c-1.567-2.995-9.48-1.854-17.75 2.424-8.269 4.276-13.687 10.194-12.119 13.187 0.215 0.428 0.641 1.142 0.641 1.142l-10.406-3.566-0.285-0.069c-1.213-0.429-2.139-1.07-2.639-1.998-2.353-4.561 5.917-13.615 18.606-20.246 12.689-6.628 24.881-8.339 27.233-3.778 0.569 0.785 0.641 1.641 0.498 2.639z" stroke="#000" stroke-linecap="round" stroke-linejoin="round" stroke-miterlimit="10" stroke-width="2.6087"/>
 <path d="m501.4 319.37 32.65 62.379" stroke="#000" stroke-linecap="round" stroke-linejoin="round" stroke-miterlimit="10" stroke-width="2.6087"/>
 <path d="m531.27 303.83 0.784 1.426 0.072 0.142 0.213 0.428 8.626 16.539" stroke="#000" stroke-linecap="round" stroke-linejoin="round" stroke-miterlimit="10" stroke-width="2.6087"/>
 <path d="m555.01 349.17-3.778-7.2" stroke="#000" stroke-linecap="round" stroke-linejoin="round" stroke-miterlimit="10" stroke-width="2.6087"/>
 <path d="m534.05 381.75-8.983 135.09" stroke="#000" stroke-linecap="round" stroke-linejoin="round" stroke-miterlimit="10" stroke-width="2.6087"/>
 <path d="m606.4 390.51 73.998 42.489 0.213 0.07 0.285 0.143" stroke="#000" stroke-linecap="round" stroke-linejoin="round" stroke-miterlimit="10" stroke-width="2.6087"/>
 <path d="m586.52 379.11-4.492-2.494" stroke="#000" stroke-linecap="round" stroke-linejoin="round" stroke-miterlimit="10" stroke-width="2.6087"/>
 <path d="m534.05 381.75c-1.426-2.709 3.065-7.985 10.265-12.12" stroke="#000" stroke-linecap="round" stroke-linejoin="round" stroke-miterlimit="10" stroke-width="2.6087"/>
 <path d="m573.04 340.18c-0.5-1.783-1.142-3.494-1.998-5.133-2.994-5.632-8.198-9.98-14.257-12.048-5.989-2.067-12.761-1.924-18.748 0.144-1.426 0.498-2.852 1.139-3.993 2.065-1.141 0.928-2.139 2.283-2.352 3.709-0.285 1.639 0.285 3.35 1.282 4.704 0.998 1.354 2.353 2.424 3.779 3.278 6.061 3.85 13.402 5.633 20.53 4.92" stroke="#000" stroke-linecap="round" stroke-linejoin="round" stroke-miterlimit="10" stroke-width="2.6087"/>
 <path d="m558.14 372.26c-2.067 0.714-4.135 1.355-6.346 1.355-2.921 0-5.987-1.213-7.269-3.637-0.072-0.141-0.144-0.285-0.215-0.357-0.998-2.352-0.285-5.132 0.784-7.484 2.211-4.99 5.633-9.411 9.909-12.974 3.637-3.066 7.841-5.418 12.476-6.916 2.922-0.926 5.987-1.567 9.052-1.354 3.066 0.213 6.133 1.426 8.129 3.565 1.924 2.068 2.78 5.061 1.852 7.698" stroke="#000" stroke-linecap="round" stroke-linejoin="round" stroke-miterlimit="10" stroke-width="2.6087"/>
 <path d="m606.4 390.51c0-2.993-0.07-7.341-1.07-10.193-0.998-2.853-2.993-5.418-5.774-6.203-3.634-1.141-7.413 0.998-10.55 3.209-6.558 4.561-12.902 10.122-16.254 17.607-0.713 1.641-1.283 3.352-1.211 5.134 0.072 1.781 0.926 3.563 2.424 4.42 1.354 0.713 2.994 0.498 4.563 0.141 4.489-1.139 17.607-17.606 27.872-14.115z" stroke="#000" stroke-linecap="round" stroke-linejoin="round" stroke-miterlimit="10" stroke-width="2.6087"/>
 <path d="m514.66 344.68c-2.495-0.785-5.063-1.354-7.628-1.711-3.137-0.5-6.772-0.641-9.126 1.568-1.996 1.854-2.424 4.919-1.711 7.487 0.713 2.565 2.496 4.776 4.492 6.628 5.347 5.063 12.547 8.554 15.969 15.113 3.278 6.274 2.281 13.974 4.491 20.674 1.853 5.561 5.916 10.337 11.192 12.974" stroke="#000" stroke-linecap="round" stroke-linejoin="round" stroke-miterlimit="10" stroke-width="2.6087"/>
 <path d="m380.71 183.14c7.057-4.063 16.183-4.348 23.452-0.712 2.781 1.354 5.348 3.35 7.059 5.988 0.998 1.568 1.567 3.35 1.711 5.204 0.141 2.281-1.426 4.277-3.637 4.776-3.422 0.713-6.913 0.499-10.265-0.499-4.42-1.283-8.411-4.063-11.12-7.77" stroke="#000" stroke-linecap="round" stroke-linejoin="round" stroke-miterlimit="10" stroke-width="2.6087"/>
 <path d="m362.81 179.72c3.778-1.64 8.198-1.64 11.976-0.143s6.987 4.634 8.626 8.412c2.565 5.846 1.426 12.69-0.713 18.678-3.637 10.051-10.193 19.104-18.606 25.591-1.855 1.426-3.779 2.781-6.059 3.422-2.211 0.644-4.776 0.5-6.702-0.783-1.924-1.284-2.709-5.489-1.783-7.7" stroke="#000" stroke-linecap="round" stroke-linejoin="round" stroke-miterlimit="10" stroke-width="2.6087"/>
 <path d="m338.58 187.56c0.785 9.267-0.213 18.677-2.994 27.588-0.854 2.852-1.924 5.704-2.067 8.698-0.072 2.993 0.998 6.202 3.493 7.769 2.353 1.498 5.561 1.141 7.985-0.213s4.276-3.637 5.915-5.917c7.557-10.693 11.763-23.739 11.835-36.856 0-4.634-0.569-9.624-3.635-13.117-3.352-3.849-9.054-5.061-13.973-3.778-3.35 0.927-6.272 2.78-9.196 4.634-2.496 1.568-4.989 3.208-7.485 4.776" stroke="#000" stroke-linecap="round" stroke-linejoin="round" stroke-miterlimit="10" stroke-width="2.6087"/>
 <path d="m309.06 195.18c2.567 5.204 3.065 11.335 1.426 16.896-3.635 9.054-0.072 25.449 11.55 11.262 3.278-3.991 5.63-8.767 7.128-13.758 1.639-5.56 2.565-11.406 1.783-17.18-1.142-8.341-6.346-16.467-14.116-18.82-6.273-1.853-12.973 0.143-18.75 3.279-5.773 3.137-10.978 7.272-16.823 10.194-31.581 15.399-68.792 4.135-103.72 3.993-13.545-0.072-27.446-0.285-40.135 4.562-12.69 4.848-24.167 15.968-25.45 29.87-0.998 10.906 4.562 21.671 12.475 29.015 7.913 7.341 18.036 11.548 28.23 14.685 47.406 14.684 111.35 6.771 152.84-21.103" stroke="#000" stroke-linecap="round" stroke-linejoin="round" stroke-miterlimit="10" stroke-width="2.6087"/>
 <path d="m283.47 242.16c20.887 7.2 43.271 10.122 65.3 8.411" stroke="#000" stroke-linecap="round" stroke-linejoin="round" stroke-miterlimit="10" stroke-width="2.6087"/>
 <path d="m350.41 234.04c-0.213 3.565-0.143 7.2 0.213 10.835 2.352 22.885 15.97 39.493 32.65 41.989h0.216c3.563 0.5 7.2 0.357 10.906-0.498 21.315-4.919 36.357-31.439 33.504-59.241-1.426-13.972-7.056-25.592-15.041-33.077" stroke="#000" stroke-linecap="round" stroke-linejoin="round" stroke-miterlimit="10" stroke-width="2.6087"/>
 <path d="m383.2 205.16c0.928-0.356 1.855-0.641 2.852-0.855 5.205-1.212 10.266-0.143 14.544 2.567 6.843 4.277 11.904 12.832 12.974 23.525 1.782 17.465-7.629 34.146-21.031 37.211-0.356 0.072-0.713 0.144-0.998 0.215-13.045 2.281-24.808-9.267-26.519-26.306-0.357-3.494-0.285-6.915 0.215-10.194" stroke="#000" stroke-linecap="round" stroke-linejoin="round" stroke-miterlimit="10" stroke-width="2.6087"/>
 <path d="m411.15 188.41c15.541 3.636 28.087 19.747 30.298 41.561 0.141 1.283 0.213 2.496 0.285 3.778" stroke="#000" stroke-linecap="round" stroke-linejoin="round" stroke-miterlimit="10" stroke-width="2.6087"/>
 <path d="m434.89 265.83c-5.917 11.266-15.326 19.392-26.519 21.959-4.348 0.998-9.054 1.639-13.117 0.783l-11.692-1.783h-0.213" stroke="#000" stroke-linecap="round" stroke-linejoin="round" stroke-miterlimit="10" stroke-width="2.6087"/>
 <path d="m413.64 230.4c1.782 17.465-7.629 34.146-21.103 37.211-0.356 0.072-0.713 0.143-0.997 0.215-6.844-4.278-11.905-12.833-12.974-23.526-1.783-17.537 7.628-34.147 21.03-37.283 0.357-0.071 0.713-0.143 1.07-0.214 6.771 4.42 11.832 12.904 12.974 23.597z" stroke="#000" stroke-linecap="round" stroke-linejoin="round" stroke-miterlimit="10" stroke-width="2.6087"/>
 <path d="m636.27 458.52c9.883 0 17.894-8.011 17.894-17.894 0-9.88-8.011-17.893-17.894-17.893-9.88 0-17.891 8.013-17.891 17.893 0 9.883 8.011 17.894 17.891 17.894z" stroke="#000" stroke-linecap="round" stroke-linejoin="round" stroke-miterlimit="10" stroke-width="2.6087"/>
 <path d="m630.57 457.6-6.63 19.745-8.126-3.563" stroke="#000" stroke-linecap="round" stroke-linejoin="round" stroke-miterlimit="10" stroke-width="2.6087"/>
 <path d="m626.08 471-5.987-2.852" stroke="#000" stroke-linecap="round" stroke-linejoin="round" stroke-miterlimit="10" stroke-width="2.6087"/>
 <path d="m681.47 433.57c-2.211 0.214-4.491 0.498-6.915 0.855-18.463-0.855-46.765 7.13-75.85 22.528-37.783 20.031-64.374 46.265-66.085 63.374l-0.07 0.998c-0.143 2.567 0.355 4.848 1.424 6.915 0.5 0.926 1.142 1.783 1.855 2.567-4.42-1.426-7.629-3.778-9.411-7.058-1.07-2.068-1.568-4.348-1.424-6.915l0.069-0.998c1.711-17.109 28.374-43.342 66.085-63.374 37.426-19.889 73.783-27.374 89.181-19.533l0.213 0.072c0.356 0.213 0.643 0.426 0.928 0.569z" fill="#fff"/>
 <mask id="a" x="524" y="429" width="158" height="102" style="mask-type:alpha" maskUnits="userSpaceOnUse">
  <path d="m681.47 433.57c-2.211 0.214-4.491 0.498-6.915 0.855-18.463-0.855-46.765 7.13-75.85 22.528-37.783 20.031-64.374 46.265-66.085 63.374l-0.07 0.998c-0.143 2.567 0.355 4.848 1.424 6.915 0.5 0.926 1.142 1.783 1.855 2.567-4.42-1.426-7.629-3.778-9.411-7.058-1.07-2.068-1.568-4.348-1.424-6.915l0.069-0.998c1.711-17.109 28.374-43.342 66.085-63.374 37.426-19.889 73.783-27.374 89.181-19.533l0.213 0.072c0.356 0.213 0.643 0.426 0.928 0.569z" fill="#fff"/>
 </mask>
 <g mask="url(#a)">
  <path d="m636.27 458.52c9.883 0 17.894-8.01 17.894-17.893 0-9.88-8.011-17.894-17.894-17.894-9.88 0-17.891 8.014-17.891 17.894 0 9.883 8.011 17.893 17.891 17.893z" stroke="#0A66C2" stroke-linecap="round" stroke-linejoin="round" stroke-miterlimit="10" stroke-opacity=".5" stroke-width="2.6087"/>
 </g>
 <path d="m546.81 431.5c-4.348 4.135-6.987 9.981-6.987 16.468 0 8.056 4.135 15.113 10.481 19.176" stroke="#0A66C2" stroke-linecap="round" stroke-linejoin="round" stroke-miterlimit="10" stroke-opacity=".5" stroke-width="2.6087"/>
 <path d="m621.86 509.99c44.187-23.489 73.158-55.408 64.713-71.297-8.446-15.887-51.111-9.724-95.298 13.765-44.185 23.489-73.159 55.411-64.713 71.298s51.113 9.724 95.298-13.766z" stroke="#000" stroke-linecap="round" stroke-linejoin="round" stroke-miterlimit="10" stroke-width="2.6087"/>
 <path d="m535.76 336.48c4.563 3.707 10.265 5.918 16.039 6.274 0.785 1.924 1.213 3.635 1.998 5.559-1.213-0.426-2.354-0.854-3.565-1.283-5.346-1.995-11.335-5.774-14.472-10.55z" fill="#000"/>
 <path d="m543.6 370.7c2.139 4.278 6.346 7.343 11.05 7.985l-0.072-0.072c0.998-1.924 1.926-3.922 2.924-5.846-4.704 1.498-9.767 0.641-13.902-2.067z" fill="#000"/>
 <path d="m505.32 270.25c-1.426 7.842-4.491 13.9-6.772 13.472-2.283-0.426-2.996-7.128-1.498-15.041 1.426-7.842 4.492-13.9 6.772-13.472 2.283 0.426 2.924 7.128 1.498 15.041z" stroke="#000" stroke-linecap="round" stroke-linejoin="round" stroke-miterlimit="10" stroke-width="2.6087"/>
 <path d="m505.1 247.94c-2.708-0.5-5.702 2.065-8.197 6.487-1.283 2.28-2.424 5.061-3.35 8.126-0.498 1.639-0.855 3.422-1.211 5.204-2.211 11.833 0 22.242 4.845 23.168l-19.317-3.635c-3.565-0.641-5.704-6.346-5.704-13.972l-36.926-7.843-1.927-0.426c-0.284-0.072-0.569-0.216-0.782-0.429-0.144-0.071-0.215-0.213-0.357-0.356-0.071-0.072-0.215-0.213-0.284-0.285-0.072-0.072-0.072-0.072-0.144-0.143-0.072-0.142-0.213-0.285-0.285-0.429-0.071-0.141-0.213-0.356-0.284-0.497-0.072-0.144-0.144-0.285-0.216-0.429-0.141-0.356-0.356-0.785-0.426-1.282-0.072-0.144-0.072-0.357-0.143-0.5-0.144-0.426-0.213-0.926-0.285-1.424 0-0.144-0.072-0.357-0.072-0.5-0.072-0.285-0.072-0.57-0.072-0.857 0-0.285-0.071-0.569-0.071-0.854v-0.285c0-0.5-0.07-1.069-0.07-1.569 0-1.853 0.141-3.779 0.498-5.846 0.072-0.285 0.072-0.57 0.143-0.854 0.072-0.285 0.142-0.57 0.142-0.857 0.428-1.924 0.928-3.778 1.569-5.417 0.072-0.142 0.142-0.357 0.213-0.498 0.072-0.215 0.216-0.5 0.285-0.713 0.072-0.215 0.144-0.357 0.215-0.572 0.072-0.213 0.142-0.357 0.213-0.498 0.285-0.572 0.5-1.069 0.785-1.569 0.213-0.285 0.357-0.642 0.57-0.926 0.072-0.144 0.215-0.285 0.285-0.429 0.071-0.141 0.215-0.285 0.287-0.426 0.782-1.069 1.567-1.782 2.421-2.211 0.072-0.071 0.215-0.071 0.287-0.143 0.213-0.07 0.357-0.141 0.57-0.213 0.072 0 0.143-0.072 0.213-0.072 0.287-0.072 0.572-0.072 0.856 0l2.424 0.5 63.302 13.474z" fill="#0A66C2" fill-opacity=".5"/>
 <path d="m496.91 254.43c-1.283 2.28-2.424 5.061-3.35 8.126l-63.233-13.259c0.072-0.287 0.072-0.571 0.144-0.856 0.071-0.285 0.141-0.57 0.141-0.855 0.428-1.926 0.928-3.778 1.57-5.419 0.071-0.141 0.141-0.357 0.213-0.498 0.071-0.215 0.215-0.5 0.284-0.713 0.072-0.215 0.144-0.357 0.216-0.572 0.071-0.213 0.141-0.354 0.213-0.498l63.802 14.544z" fill="#fff"/>
 <path d="m505.1 247.94c-2.708-0.5-5.702 2.065-8.197 6.487-1.283 2.28-2.424 5.061-3.35 8.126-0.498 1.639-0.855 3.422-1.211 5.204-2.211 11.833 0 22.242 4.845 23.168l-19.317-3.635c-3.565-0.641-5.704-6.346-5.704-13.972l-36.926-7.843-1.927-0.426c-0.284-0.072-0.569-0.216-0.782-0.429-0.144-0.071-0.215-0.213-0.357-0.356-0.071-0.072-0.215-0.213-0.284-0.285-0.072-0.072-0.072-0.072-0.144-0.143-0.072-0.142-0.213-0.285-0.285-0.429-0.071-0.141-0.213-0.356-0.284-0.497-0.072-0.144-0.144-0.285-0.216-0.429-0.141-0.356-0.356-0.785-0.426-1.282-0.072-0.144-0.072-0.357-0.143-0.5-0.144-0.426-0.213-0.926-0.285-1.424 0-0.144-0.072-0.357-0.072-0.5-0.072-0.285-0.072-0.57-0.072-0.857 0-0.285-0.071-0.569-0.071-0.854v-0.285c0-0.5-0.07-1.069-0.07-1.569 0-1.853 0.141-3.779 0.498-5.846 0.072-0.285 0.072-0.57 0.143-0.854 0.072-0.285 0.142-0.57 0.142-0.857 0.428-1.924 0.928-3.778 1.569-5.417 0.072-0.142 0.142-0.357 0.213-0.498 0.072-0.215 0.216-0.5 0.285-0.713 0.072-0.215 0.144-0.357 0.215-0.572 0.072-0.213 0.142-0.357 0.213-0.498 0.285-0.572 0.5-1.069 0.785-1.569 0.213-0.285 0.357-0.642 0.57-0.926 0.072-0.144 0.215-0.285 0.285-0.429 0.071-0.141 0.215-0.285 0.287-0.426 0.782-1.069 1.567-1.782 2.421-2.211 0.072-0.071 0.215-0.071 0.287-0.143 0.213-0.07 0.357-0.141 0.57-0.213 0.072 0 0.143-0.072 0.213-0.072 0.287-0.072 0.572-0.072 0.856 0l2.424 0.5 63.302 13.474z" stroke="#000" stroke-linecap="round" stroke-linejoin="round" stroke-miterlimit="10" stroke-width="2.6087"/>
 <path d="m509.95 271.11c-2.208 11.907-7.913 20.746-12.761 19.818-4.845-0.926-7.056-11.263-4.845-23.168 2.208-11.904 7.913-20.745 12.758-19.817 4.848 0.926 7.059 11.263 4.848 23.167z" stroke="#000" stroke-linecap="round" stroke-linejoin="round" stroke-miterlimit="10" stroke-width="2.6087"/>
 <path d="m605.91 510.92c22.955-9.981 44.126-24.024 62.235-41.205 3.991-3.778 16.252-16.895 12.689-29.087-2.639 14.757-13.902 24.452-17.893 28.374-17.109 16.609-36.072 30.439-57.031 41.918z" fill="#fff" stroke="#fff" stroke-linecap="round" stroke-linejoin="round" stroke-miterlimit="10" stroke-width="2.6087"/>
 <path d="m457.34 428.8-16.967-18.322-9.552-10.265-9.552 5.774-1.213 3.85 9.552 10.265-5.774 5.132-4.348-4.704-5.132 4.704s-3.209-3.206-5.348-5.489l-9.481 5.276v3.209l9.552 10.265-12.902 11.548c-6.487-4.704-14.471-7.485-23.098-7.485-21.743 0-39.421 17.679-39.421 39.422 0 21.815 17.678 39.422 39.421 39.422 21.744 0 39.422-17.679 39.422-39.422 0-3.991-0.569-7.841-1.711-11.478l46.552-41.702zm-84.406 73.426c-11.12 0-20.174-9.055-20.174-20.174 0-11.122 9.054-20.174 20.174-20.174 11.122 0 20.176 9.052 20.176 20.174-0.072 11.119-9.054 20.174-20.176 20.174z" fill="#000" stroke="#000" stroke-linecap="round" stroke-linejoin="round" stroke-miterlimit="10" stroke-width="2.6087"/>
 <path d="m321.26 473.42c-0.144-4.279-1.213-8.555-3.209-12.689-7.556-15.47-26.019-22.1-41.632-14.97-5.061-9.27-25.448-48.335-38.85-74.211l-11.122 0.07-4.848-9.337 3.707-14.331-18.535-10.121s-11.406 15.397-13.544 23.026l14.756 7.769 3.778 6.631-2.352 4.989s1.782 3.565 14.827 28.587l-3.35 8.482c10.622 20.389 20.817 39.781 23.311 44.27-11.12 5.846-17.394 17.467-16.896 29.372 0.144 4.276 1.213 8.554 3.209 12.617 7.7 15.754 26.733 22.313 42.487 14.615l30.583-14.9c11.55-5.774 18.178-17.608 17.68-29.869zm-42.63 27.161c-7.2 0.284-13.331-5.348-13.616-12.548-0.287-7.2 5.346-13.259 12.546-13.544s13.33 5.346 13.615 12.546c0.287 7.13-5.345 13.261-12.545 13.546z" fill="#000" stroke="#000" stroke-linecap="round" stroke-linejoin="round" stroke-miterlimit="10" stroke-width="2.6087"/>
 <path d="m193.86 357.01 15.327 8.411 3.778 6.63-2.352 4.991s1.782 3.563 14.828 28.585l-3.35 8.485c10.622 20.387 20.815 39.778 23.311 44.269-11.122 5.846-17.396 17.466-16.896 29.37 0.144 4.278 1.211 8.554 3.209 12.617 7.698 15.757 26.732 22.313 42.487 14.616l30.582-14.9c11.692-5.703 18.32-17.607 17.822-29.798-0.143-4.278-1.213-8.555-3.209-12.689-7.556-15.47-26.019-22.1-41.63-14.97-5.063-9.267-25.45-48.335-38.852-74.211l-11.122 0.07-4.848-9.337 3.707-14.331-18.463-10.05-14.329 22.242zm85.972 140.44c-7.2 0.284-13.33-5.348-13.615-12.548s5.348-13.259 12.548-13.544c7.2-0.284 13.33 5.346 13.615 12.546s-5.346 13.261-12.548 13.546z" fill="#fff"/>
 <path d="m208.19 334.77 18.393 10.122-3.708 14.328 4.847 9.34 11.122-0.072c0.544 1.087 2.27 4.432 3.913 7.602m-48.896-19.078 15.327 8.411 3.778 6.63-2.352 4.991s1.782 3.563 14.828 28.585l-3.35 8.485c10.622 20.387 20.815 39.778 23.311 44.269-11.122 5.846-17.396 17.466-16.896 29.37 0.144 4.278 1.211 8.554 3.209 12.617 7.698 15.757 26.732 22.313 42.487 14.616l30.582-14.9c11.692-5.703 18.32-17.607 17.822-29.798-0.143-4.278-1.213-8.555-3.209-12.689-1.969-3.992-4.173-7.124-7.443-9.929m-64.13-61.797c11.721 22.489 26.058 49.782 29.871 56.826 6.27-2.861 16.502-4 25.563-0.37m-23.426 55.12c-7.2 0.284-13.33-5.348-13.615-12.548s5.348-13.259 12.548-13.544c7.2-0.284 13.33 5.346 13.615 12.546s-5.346 13.261-12.548 13.546z" stroke="#000" stroke-linecap="round" stroke-linejoin="round" stroke-miterlimit="10" stroke-width="2.6087"/>
 <path d="m247.83 490.89c-19.32 2.28-35.075 5.417-45.554 9.124-15.113-22.454-24.024-49.472-24.024-78.559 0-35.643 13.26-68.222 35.145-93.03 2.852-3.137 5.774-6.202 8.839-9.124" stroke="#000" stroke-linecap="round" stroke-linejoin="round" stroke-miterlimit="10" stroke-width="2.6087"/>
 <path d="m222.24 319.37c25.165-23.811 59.169-38.355 96.524-38.355 37.995 0 72.572 15.113 97.806 39.637 26.307 25.522 42.702 61.307 42.702 100.87 0 29.085-8.839 56.104-24.023 78.559" stroke="#000" stroke-linecap="round" stroke-linejoin="round" stroke-miterlimit="10" stroke-width="2.6087"/>
 <path d="m324.75 561.89c-1.998 0.072-3.994 0.144-5.989 0.144-19.746 0-38.568-4.063-55.605-11.407-10.193-4.419-19.745-9.908-28.443-16.467 22.741-3.493 52.039-5.561 84.048-5.561h7.628c1.711 0 3.422 0 5.133 0.072 0.784 0 1.567 0 2.424 0.072 1.21 0 2.495 0.071 3.706 0.071 2.424 0.07 4.92 0.142 7.344 0.213 2.423 0.072 4.776 0.213 7.128 0.285 0.498 0 0.926 0.072 1.426 0.072 1.852 0.072 3.635 0.213 5.489 0.285 1.211 0.071 2.352 0.143 3.563 0.215 1.141 0.069 2.283 0.141 3.422 0.213 1.141 0.072 2.211 0.143 3.352 0.213 1.139 0.072 2.209 0.143 3.278 0.285 1.07 0.072 2.211 0.215 3.281 0.287 2.208 0.213 4.276 0.356 6.415 0.569 0.356 0 0.641 0.072 0.998 0.072 1.069 0.141 2.211 0.213 3.278 0.357 2.283 0.213 4.563 0.497 6.774 0.782 0.998 0.144 2.067 0.287 3.065 0.428 1.139 0.144 2.281 0.285 3.422 0.5 1.069 0.142 2.067 0.285 3.137 0.427-22.1 16.469-49.046 26.663-78.274 27.873z" stroke="#000" stroke-linecap="round" stroke-linejoin="round" stroke-miterlimit="10" stroke-width="2.6087"/>
 <path d="m410.94 535.44 6.771 28.087 18.607 77.776" stroke="#000" stroke-linecap="round" stroke-linejoin="round" stroke-miterlimit="10" stroke-width="2.6087"/>
 <path d="m318.76 562.03v79.272" stroke="#000" stroke-linecap="round" stroke-linejoin="round" stroke-miterlimit="10" stroke-width="2.6087"/>
 <path d="m568.55 641.23h-327.35" stroke="#fff" stroke-miterlimit="10" stroke-width="2.6087"/>
 <path d="m201.2 523.96c4.491-1.641 10.123-3.28 16.682-4.706 23.952-5.274 60.237-8.626 100.87-8.626 7.841 0 15.541 0.143 22.954 0.356 1.639 0.072 3.28 0.072 4.919 0.144 14.614 0.569 28.372 1.567 40.705 2.993 12.263 1.354 23.169 3.065 32.293 5.133 6.559 1.426 12.12 2.995 16.683 4.706" stroke="#000" stroke-linecap="round" stroke-linejoin="round" stroke-miterlimit="10" stroke-width="2.6087"/>
 <path d="m436.31 523.96-25.378 11.476" stroke="#000" stroke-linecap="round" stroke-linejoin="round" stroke-miterlimit="10" stroke-width="2.6087"/>
 <path d="m457.34 425.66-16.967-18.322-9.552-10.265-10.837 9.624 9.554 10.265-5.776 5.132-4.348-4.704-5.132 4.704s-3.209-3.206-5.346-5.489l-9.483 8.485 9.553 10.265-12.903 11.548c-6.486-4.704-14.471-7.485-23.097-7.485-21.744 0-39.422 17.681-39.422 39.422 0 21.815 17.678 39.422 39.422 39.422 21.743 0 39.421-17.678 39.421-39.422 0-3.991-0.569-7.841-1.71-11.476l46.623-41.704zm-84.406 73.354c-11.12 0-20.174-9.052-20.174-20.174 0-11.119 9.054-20.174 20.174-20.174 11.122 0 20.176 9.055 20.176 20.174-0.072 11.122-9.054 20.174-20.176 20.174z" fill="#0A66C2" fill-opacity=".5"/>
 <path d="m367.66 439.77c-20.176 2.637-35.502 20.53-34.076 41.702 1.283 19.463 17.037 35.289 36.5 36.644 23.026 1.639 42.274-16.611 42.274-39.353 0-3.991-0.572-7.841-1.713-11.476l46.696-41.704-16.968-18.32-7.841-8.484c-0.928-0.998-2.496-1.07-3.565-0.142l-6.987 6.272c-1.068 0.928-1.139 2.567-0.142 3.637l7.77 8.411-5.774 5.132-4.348-4.704-5.132 4.704s-3.209-3.206-5.348-5.489l-9.481 8.485 9.553 10.265-12.903 11.548c-2.995-2.139-6.274-3.919-9.767-5.132m-13.474 57.243c-11.119 0-20.174-9.052-20.174-20.174 0-11.119 9.055-20.174 20.174-20.174 11.122 0 20.176 9.055 20.176 20.174-0.072 11.122-9.054 20.174-20.176 20.174z" stroke="#000" stroke-linecap="round" stroke-linejoin="round" stroke-miterlimit="10" stroke-width="2.6087"/>
 <path d="m217.89 519.33c-5.775-5.915-10.979-12.404-15.613-19.247" stroke="#000" stroke-linecap="round" stroke-linejoin="round" stroke-miterlimit="10" stroke-width="2.6087"/>
 <path d="m217.89 519.33c23.952-5.276 60.237-8.626 100.87-8.626 7.842 0 15.542 0.144 22.955 0.357 1.639 0.071 3.28 0.071 4.919 0.143 14.613 0.57 28.372 1.568 40.705 2.994 0.856 0.071 1.782 0.213 2.639 0.284 11.191 1.285 21.243 2.924 29.654 4.777 5.776-5.916 10.978-12.405 15.613-19.248-7.7-2.709-18.178-5.133-30.867-7.129-0.5-0.071-1.07-0.213-1.639-0.284" stroke="#000" stroke-linecap="round" stroke-linejoin="round" stroke-miterlimit="10" stroke-width="2.6087"/>
 <path d="m261.23 489.53c17.322-1.568 36.855-2.424 57.529-2.424 28.017 0 53.893 1.569 75.208 4.278" stroke="#000" stroke-linecap="round" stroke-linejoin="round" stroke-miterlimit="10" stroke-width="2.6087"/>
 <path d="m202.27 500.01c10.48-3.709 26.235-6.846 45.554-9.126" stroke="#000" stroke-linecap="round" stroke-linejoin="round" stroke-miterlimit="10" stroke-width="2.6087"/>
 <path d="m436.31 523.96-25.308 11.477c-2.566-0.429-5.346-0.927-8.127-1.355-0.997-0.141-2.067-0.285-3.137-0.428-1.139-0.141-2.28-0.285-3.421-0.498-0.998-0.143-1.996-0.285-3.065-0.428-2.209-0.285-4.492-0.57-6.772-0.785-1.07-0.141-2.139-0.213-3.281-0.356-0.356 0-0.641-0.07-0.997-0.07-2.068-0.215-4.205-0.428-6.416-0.572-1.069-0.071-2.139-0.213-3.278-0.284-1.07-0.072-2.211-0.214-3.28-0.285-1.142-0.072-2.209-0.144-3.35-0.213-1.142-0.072-2.281-0.144-3.422-0.216-1.213-0.071-2.352-0.141-3.565-0.213-1.783-0.071-3.635-0.215-5.489-0.284-0.498 0-0.927-0.072-1.427-0.072-2.352-0.144-4.776-0.215-7.128-0.285-2.424-0.072-4.848-0.143-7.341-0.215-1.213 0-2.424-0.07-3.709-0.07-0.782 0-1.567 0-2.424-0.071-1.711 0-3.421-0.072-5.132-0.072h-7.626c-32.009 0-61.381 2.067-84.05 5.561-2.781 0.426-5.49 0.854-8.127 1.354l-25.307-11.478c4.491-1.639 10.123-3.278 16.681-4.705 23.953-5.276 60.24-8.626 100.87-8.626 7.841 0 15.541 0.144 22.954 0.357 1.642 0.072 3.281 0.072 4.92 0.143 14.615 0.57 28.374 1.568 40.707 2.994 0.854 0.072 1.78 0.213 2.637 0.285 11.191 1.282 21.243 2.924 29.656 4.776 6.628 1.426 12.261 2.993 16.752 4.634z" fill="#0A66C2" fill-opacity=".5" stroke="#000" stroke-linecap="round" stroke-linejoin="round" stroke-miterlimit="10" stroke-width="2.6087"/>
 <path d="m226.58 535.44-3.921 8.198" stroke="#000" stroke-linecap="round" stroke-linejoin="round" stroke-miterlimit="10" stroke-width="2.6087"/>
 <path d="m211.76 533.87c9.268 8.695 19.105 16.752 29.442 24.237" stroke="#fff" stroke-miterlimit="10" stroke-width="2.6087"/>
 <path d="m226.58 511.13c-28.16-39.279-39.851-93.031-31.012-142.58-16.752 39.85-13.758 86.258 8.983 122.12 5.489 8.696 12.831 17.963 22.029 20.459z" fill="#fff" stroke="#fff" stroke-linecap="round" stroke-linejoin="round" stroke-miterlimit="10" stroke-width="2.6087"/>
 <path d="m581.67 558.11 26.948 73.426c1.711 4.776-1.783 9.767-6.844 9.767h-380.75c-4.99 0-8.484-5.061-6.772-9.767l26.946-73.426" stroke="#fff" stroke-linecap="round" stroke-linejoin="round" stroke-miterlimit="10" stroke-width="4.3478"/>
</svg>
